<?xml version="1.0" encoding="utf-8" standalone="no"?>
<!DOCTYPE svg PUBLIC "-//W3C//DTD SVG 1.1//EN"
  "http://www.w3.org/Graphics/SVG/1.1/DTD/svg11.dtd">
<svg xmlns:xlink="http://www.w3.org/1999/xlink" width="532.8pt" height="111.6pt" viewBox="0 0 532.8 111.6" xmlns="http://www.w3.org/2000/svg" version="1.1">
 <metadata>
  <rdf:RDF xmlns:dc="http://purl.org/dc/elements/1.1/" xmlns:cc="http://creativecommons.org/ns#" xmlns:rdf="http://www.w3.org/1999/02/22-rdf-syntax-ns#">
   <cc:Work>
    <dc:type rdf:resource="http://purl.org/dc/dcmitype/StillImage"/>
    <dc:date>2026-05-24T19:32:19.479993</dc:date>
    <dc:format>image/svg+xml</dc:format>
    <dc:creator>
     <cc:Agent>
      <dc:title>Matplotlib v3.5.3, https://matplotlib.org/</dc:title>
     </cc:Agent>
    </dc:creator>
   </cc:Work>
  </rdf:RDF>
 </metadata>
 <defs>
  <style type="text/css">*{stroke-linejoin: round; stroke-linecap: butt}</style>
 </defs>
 <g id="figure_1">
  <g id="patch_1">
   <path d="M 0 111.6 
L 532.8 111.6 
L 532.8 0 
L 0 0 
z
" style="fill: #ffffff"/>
  </g>
  <g id="axes_1">
   <g id="patch_2">
    <path d="M 87.912 63.612 
L 530.136 63.612 
L 530.136 10.044 
L 87.912 10.044 
z
" style="fill: #ffffff"/>
   </g>
   <g id="matplotlib.axis_1">
    <g id="xtick_1">
     <g id="line2d_1">
      <path d="M 87.912 63.612 
L 87.912 10.044 
" clip-path="url(#p5235d1788e)" style="fill: none; stroke: #ededed; stroke-width: 0.7; stroke-linecap: square"/>
     </g>
     <g id="line2d_2">
      <defs>
       <path id="mbc0bd04acb" d="M 0 0 
L 0 4 
" style="stroke: #222222; stroke-width: 0.9"/>
      </defs>
      <g>
       <use xlink:href="#mbc0bd04acb" x="87.912" y="63.612" style="fill: #222222; stroke: #222222; stroke-width: 0.9"/>
      </g>
     </g>
     <g id="text_1">
      <!-- 0 -->
      <g style="fill: #222222" transform="translate(82.822 83.2695)scale(0.16 -0.16)">
       <defs>
        <path id="DejaVuSans-30" d="M 2034 4250 
Q 1547 4250 1301 3770 
Q 1056 3291 1056 2328 
Q 1056 1369 1301 889 
Q 1547 409 2034 409 
Q 2525 409 2770 889 
Q 3016 1369 3016 2328 
Q 3016 3291 2770 3770 
Q 2525 4250 2034 4250 
z
M 2034 4750 
Q 2819 4750 3233 4129 
Q 3647 3509 3647 2328 
Q 3647 1150 3233 529 
Q 2819 -91 2034 -91 
Q 1250 -91 836 529 
Q 422 1150 422 2328 
Q 422 3509 836 4129 
Q 1250 4750 2034 4750 
z
" transform="scale(0.015625)"/>
       </defs>
       <use xlink:href="#DejaVuSans-30"/>
      </g>
     </g>
    </g>
    <g id="xtick_2">
     <g id="line2d_3">
      <path d="M 176.3568 63.612 
L 176.3568 10.044 
" clip-path="url(#p5235d1788e)" style="fill: none; stroke: #ededed; stroke-width: 0.7; stroke-linecap: square"/>
     </g>
     <g id="line2d_4">
      <g>
       <use xlink:href="#mbc0bd04acb" x="176.3568" y="63.612" style="fill: #222222; stroke: #222222; stroke-width: 0.9"/>
      </g>
     </g>
     <g id="text_2">
      <!-- 1 -->
      <g style="fill: #222222" transform="translate(171.2668 83.2695)scale(0.16 -0.16)">
       <defs>
        <path id="DejaVuSans-31" d="M 794 531 
L 1825 531 
L 1825 4091 
L 703 3866 
L 703 4441 
L 1819 4666 
L 2450 4666 
L 2450 531 
L 3481 531 
L 3481 0 
L 794 0 
L 794 531 
z
" transform="scale(0.015625)"/>
       </defs>
       <use xlink:href="#DejaVuSans-31"/>
      </g>
     </g>
    </g>
    <g id="xtick_3">
     <g id="line2d_5">
      <path d="M 264.8016 63.612 
L 264.8016 10.044 
" clip-path="url(#p5235d1788e)" style="fill: none; stroke: #ededed; stroke-width: 0.7; stroke-linecap: square"/>
     </g>
     <g id="line2d_6">
      <g>
       <use xlink:href="#mbc0bd04acb" x="264.8016" y="63.612" style="fill: #222222; stroke: #222222; stroke-width: 0.9"/>
      </g>
     </g>
     <g id="text_3">
      <!-- 2 -->
      <g style="fill: #222222" transform="translate(259.7116 83.2695)scale(0.16 -0.16)">
       <defs>
        <path id="DejaVuSans-32" d="M 1228 531 
L 3431 531 
L 3431 0 
L 469 0 
L 469 531 
Q 828 903 1448 1529 
Q 2069 2156 2228 2338 
Q 2531 2678 2651 2914 
Q 2772 3150 2772 3378 
Q 2772 3750 2511 3984 
Q 2250 4219 1831 4219 
Q 1534 4219 1204 4116 
Q 875 4013 500 3803 
L 500 4441 
Q 881 4594 1212 4672 
Q 1544 4750 1819 4750 
Q 2544 4750 2975 4387 
Q 3406 4025 3406 3419 
Q 3406 3131 3298 2873 
Q 3191 2616 2906 2266 
Q 2828 2175 2409 1742 
Q 1991 1309 1228 531 
z
" transform="scale(0.015625)"/>
       </defs>
       <use xlink:href="#DejaVuSans-32"/>
      </g>
     </g>
    </g>
    <g id="xtick_4">
     <g id="line2d_7">
      <path d="M 353.2464 63.612 
L 353.2464 10.044 
" clip-path="url(#p5235d1788e)" style="fill: none; stroke: #ededed; stroke-width: 0.7; stroke-linecap: square"/>
     </g>
     <g id="line2d_8">
      <g>
       <use xlink:href="#mbc0bd04acb" x="353.2464" y="63.612" style="fill: #222222; stroke: #222222; stroke-width: 0.9"/>
      </g>
     </g>
     <g id="text_4">
      <!-- 3 -->
      <g style="fill: #222222" transform="translate(348.1564 83.2695)scale(0.16 -0.16)">
       <defs>
        <path id="DejaVuSans-33" d="M 2597 2516 
Q 3050 2419 3304 2112 
Q 3559 1806 3559 1356 
Q 3559 666 3084 287 
Q 2609 -91 1734 -91 
Q 1441 -91 1130 -33 
Q 819 25 488 141 
L 488 750 
Q 750 597 1062 519 
Q 1375 441 1716 441 
Q 2309 441 2620 675 
Q 2931 909 2931 1356 
Q 2931 1769 2642 2001 
Q 2353 2234 1838 2234 
L 1294 2234 
L 1294 2753 
L 1863 2753 
Q 2328 2753 2575 2939 
Q 2822 3125 2822 3475 
Q 2822 3834 2567 4026 
Q 2313 4219 1838 4219 
Q 1578 4219 1281 4162 
Q 984 4106 628 3988 
L 628 4550 
Q 988 4650 1302 4700 
Q 1616 4750 1894 4750 
Q 2613 4750 3031 4423 
Q 3450 4097 3450 3541 
Q 3450 3153 3228 2886 
Q 3006 2619 2597 2516 
z
" transform="scale(0.015625)"/>
       </defs>
       <use xlink:href="#DejaVuSans-33"/>
      </g>
     </g>
    </g>
    <g id="xtick_5">
     <g id="line2d_9">
      <path d="M 441.6912 63.612 
L 441.6912 10.044 
" clip-path="url(#p5235d1788e)" style="fill: none; stroke: #ededed; stroke-width: 0.7; stroke-linecap: square"/>
     </g>
     <g id="line2d_10">
      <g>
       <use xlink:href="#mbc0bd04acb" x="441.6912" y="63.612" style="fill: #222222; stroke: #222222; stroke-width: 0.9"/>
      </g>
     </g>
     <g id="text_5">
      <!-- 4 -->
      <g style="fill: #222222" transform="translate(436.6012 83.2695)scale(0.16 -0.16)">
       <defs>
        <path id="DejaVuSans-34" d="M 2419 4116 
L 825 1625 
L 2419 1625 
L 2419 4116 
z
M 2253 4666 
L 3047 4666 
L 3047 1625 
L 3713 1625 
L 3713 1100 
L 3047 1100 
L 3047 0 
L 2419 0 
L 2419 1100 
L 313 1100 
L 313 1709 
L 2253 4666 
z
" transform="scale(0.015625)"/>
       </defs>
       <use xlink:href="#DejaVuSans-34"/>
      </g>
     </g>
    </g>
    <g id="xtick_6">
     <g id="line2d_11">
      <path d="M 530.136 63.612 
L 530.136 10.044 
" clip-path="url(#p5235d1788e)" style="fill: none; stroke: #ededed; stroke-width: 0.7; stroke-linecap: square"/>
     </g>
     <g id="line2d_12">
      <g>
       <use xlink:href="#mbc0bd04acb" x="530.136" y="63.612" style="fill: #222222; stroke: #222222; stroke-width: 0.9"/>
      </g>
     </g>
     <g id="text_6">
      <!-- 5 -->
      <g style="fill: #222222" transform="translate(525.046 83.2695)scale(0.16 -0.16)">
       <defs>
        <path id="DejaVuSans-35" d="M 691 4666 
L 3169 4666 
L 3169 4134 
L 1269 4134 
L 1269 2991 
Q 1406 3038 1543 3061 
Q 1681 3084 1819 3084 
Q 2600 3084 3056 2656 
Q 3513 2228 3513 1497 
Q 3513 744 3044 326 
Q 2575 -91 1722 -91 
Q 1428 -91 1123 -41 
Q 819 9 494 109 
L 494 744 
Q 775 591 1075 516 
Q 1375 441 1709 441 
Q 2250 441 2565 725 
Q 2881 1009 2881 1497 
Q 2881 1984 2565 2268 
Q 2250 2553 1709 2553 
Q 1456 2553 1204 2497 
Q 953 2441 691 2322 
L 691 4666 
z
" transform="scale(0.015625)"/>
       </defs>
       <use xlink:href="#DejaVuSans-35"/>
      </g>
     </g>
    </g>
    <g id="text_7">
     <!-- Time (s) -->
     <g transform="translate(268.366188 102.793875)scale(0.2 -0.2)">
      <defs>
       <path id="DejaVuSans-54" d="M -19 4666 
L 3928 4666 
L 3928 4134 
L 2272 4134 
L 2272 0 
L 1638 0 
L 1638 4134 
L -19 4134 
L -19 4666 
z
" transform="scale(0.015625)"/>
       <path id="DejaVuSans-69" d="M 603 3500 
L 1178 3500 
L 1178 0 
L 603 0 
L 603 3500 
z
M 603 4863 
L 1178 4863 
L 1178 4134 
L 603 4134 
L 603 4863 
z
" transform="scale(0.015625)"/>
       <path id="DejaVuSans-6d" d="M 3328 2828 
Q 3544 3216 3844 3400 
Q 4144 3584 4550 3584 
Q 5097 3584 5394 3201 
Q 5691 2819 5691 2113 
L 5691 0 
L 5113 0 
L 5113 2094 
Q 5113 2597 4934 2840 
Q 4756 3084 4391 3084 
Q 3944 3084 3684 2787 
Q 3425 2491 3425 1978 
L 3425 0 
L 2847 0 
L 2847 2094 
Q 2847 2600 2669 2842 
Q 2491 3084 2119 3084 
Q 1678 3084 1418 2786 
Q 1159 2488 1159 1978 
L 1159 0 
L 581 0 
L 581 3500 
L 1159 3500 
L 1159 2956 
Q 1356 3278 1631 3431 
Q 1906 3584 2284 3584 
Q 2666 3584 2933 3390 
Q 3200 3197 3328 2828 
z
" transform="scale(0.015625)"/>
       <path id="DejaVuSans-65" d="M 3597 1894 
L 3597 1613 
L 953 1613 
Q 991 1019 1311 708 
Q 1631 397 2203 397 
Q 2534 397 2845 478 
Q 3156 559 3463 722 
L 3463 178 
Q 3153 47 2828 -22 
Q 2503 -91 2169 -91 
Q 1331 -91 842 396 
Q 353 884 353 1716 
Q 353 2575 817 3079 
Q 1281 3584 2069 3584 
Q 2775 3584 3186 3129 
Q 3597 2675 3597 1894 
z
M 3022 2063 
Q 3016 2534 2758 2815 
Q 2500 3097 2075 3097 
Q 1594 3097 1305 2825 
Q 1016 2553 972 2059 
L 3022 2063 
z
" transform="scale(0.015625)"/>
       <path id="DejaVuSans-20" transform="scale(0.015625)"/>
       <path id="DejaVuSans-28" d="M 1984 4856 
Q 1566 4138 1362 3434 
Q 1159 2731 1159 2009 
Q 1159 1288 1364 580 
Q 1569 -128 1984 -844 
L 1484 -844 
Q 1016 -109 783 600 
Q 550 1309 550 2009 
Q 550 2706 781 3412 
Q 1013 4119 1484 4856 
L 1984 4856 
z
" transform="scale(0.015625)"/>
       <path id="DejaVuSans-73" d="M 2834 3397 
L 2834 2853 
Q 2591 2978 2328 3040 
Q 2066 3103 1784 3103 
Q 1356 3103 1142 2972 
Q 928 2841 928 2578 
Q 928 2378 1081 2264 
Q 1234 2150 1697 2047 
L 1894 2003 
Q 2506 1872 2764 1633 
Q 3022 1394 3022 966 
Q 3022 478 2636 193 
Q 2250 -91 1575 -91 
Q 1294 -91 989 -36 
Q 684 19 347 128 
L 347 722 
Q 666 556 975 473 
Q 1284 391 1588 391 
Q 1994 391 2212 530 
Q 2431 669 2431 922 
Q 2431 1156 2273 1281 
Q 2116 1406 1581 1522 
L 1381 1569 
Q 847 1681 609 1914 
Q 372 2147 372 2553 
Q 372 3047 722 3315 
Q 1072 3584 1716 3584 
Q 2034 3584 2315 3537 
Q 2597 3491 2834 3397 
z
" transform="scale(0.015625)"/>
       <path id="DejaVuSans-29" d="M 513 4856 
L 1013 4856 
Q 1481 4119 1714 3412 
Q 1947 2706 1947 2009 
Q 1947 1309 1714 600 
Q 1481 -109 1013 -844 
L 513 -844 
Q 928 -128 1133 580 
Q 1338 1288 1338 2009 
Q 1338 2731 1133 3434 
Q 928 4138 513 4856 
z
" transform="scale(0.015625)"/>
      </defs>
      <use xlink:href="#DejaVuSans-54"/>
      <use xlink:href="#DejaVuSans-69" x="57.958984"/>
      <use xlink:href="#DejaVuSans-6d" x="85.742188"/>
      <use xlink:href="#DejaVuSans-65" x="183.154297"/>
      <use xlink:href="#DejaVuSans-20" x="244.677734"/>
      <use xlink:href="#DejaVuSans-28" x="276.464844"/>
      <use xlink:href="#DejaVuSans-73" x="315.478516"/>
      <use xlink:href="#DejaVuSans-29" x="367.578125"/>
     </g>
    </g>
   </g>
   <g id="matplotlib.axis_2">
    <g id="ytick_1">
     <g id="line2d_13">
      <path d="M 87.912 63.612 
L 530.136 63.612 
" clip-path="url(#p5235d1788e)" style="fill: none; stroke: #ededed; stroke-width: 0.7; stroke-linecap: square"/>
     </g>
     <g id="line2d_14">
      <defs>
       <path id="mb42bdb865b" d="M 0 0 
L -4 0 
" style="stroke: #222222; stroke-width: 0.9"/>
      </defs>
      <g>
       <use xlink:href="#mb42bdb865b" x="87.912" y="63.612" style="fill: #222222; stroke: #222222; stroke-width: 0.9"/>
      </g>
     </g>
     <g id="text_8">
      <!-- −0.04 -->
      <g style="fill: #222222" transform="translate(31.3795 69.69075)scale(0.16 -0.16)">
       <defs>
        <path id="DejaVuSans-2212" d="M 678 2272 
L 4684 2272 
L 4684 1741 
L 678 1741 
L 678 2272 
z
" transform="scale(0.015625)"/>
        <path id="DejaVuSans-2e" d="M 684 794 
L 1344 794 
L 1344 0 
L 684 0 
L 684 794 
z
" transform="scale(0.015625)"/>
       </defs>
       <use xlink:href="#DejaVuSans-2212"/>
       <use xlink:href="#DejaVuSans-30" x="83.789062"/>
       <use xlink:href="#DejaVuSans-2e" x="147.412109"/>
       <use xlink:href="#DejaVuSans-30" x="179.199219"/>
       <use xlink:href="#DejaVuSans-34" x="242.822266"/>
      </g>
     </g>
    </g>
    <g id="ytick_2">
     <g id="line2d_15">
      <path d="M 87.912 50.22 
L 530.136 50.22 
" clip-path="url(#p5235d1788e)" style="fill: none; stroke: #ededed; stroke-width: 0.7; stroke-linecap: square"/>
     </g>
     <g id="line2d_16">
      <g>
       <use xlink:href="#mb42bdb865b" x="87.912" y="50.22" style="fill: #222222; stroke: #222222; stroke-width: 0.9"/>
      </g>
     </g>
     <g id="text_9">
      <!-- −0.02 -->
      <g style="fill: #222222" transform="translate(31.3795 56.29875)scale(0.16 -0.16)">
       <use xlink:href="#DejaVuSans-2212"/>
       <use xlink:href="#DejaVuSans-30" x="83.789062"/>
       <use xlink:href="#DejaVuSans-2e" x="147.412109"/>
       <use xlink:href="#DejaVuSans-30" x="179.199219"/>
       <use xlink:href="#DejaVuSans-32" x="242.822266"/>
      </g>
     </g>
    </g>
    <g id="ytick_3">
     <g id="line2d_17">
      <path d="M 87.912 36.828 
L 530.136 36.828 
" clip-path="url(#p5235d1788e)" style="fill: none; stroke: #ededed; stroke-width: 0.7; stroke-linecap: square"/>
     </g>
     <g id="line2d_18">
      <g>
       <use xlink:href="#mb42bdb865b" x="87.912" y="36.828" style="fill: #222222; stroke: #222222; stroke-width: 0.9"/>
      </g>
     </g>
     <g id="text_10">
      <!-- 0.00 -->
      <g style="fill: #222222" transform="translate(44.787 42.90675)scale(0.16 -0.16)">
       <use xlink:href="#DejaVuSans-30"/>
       <use xlink:href="#DejaVuSans-2e" x="63.623047"/>
       <use xlink:href="#DejaVuSans-30" x="95.410156"/>
       <use xlink:href="#DejaVuSans-30" x="159.033203"/>
      </g>
     </g>
    </g>
    <g id="ytick_4">
     <g id="line2d_19">
      <path d="M 87.912 23.436 
L 530.136 23.436 
" clip-path="url(#p5235d1788e)" style="fill: none; stroke: #ededed; stroke-width: 0.7; stroke-linecap: square"/>
     </g>
     <g id="line2d_20">
      <g>
       <use xlink:href="#mb42bdb865b" x="87.912" y="23.436" style="fill: #222222; stroke: #222222; stroke-width: 0.9"/>
      </g>
     </g>
     <g id="text_11">
      <!-- 0.02 -->
      <g style="fill: #222222" transform="translate(44.787 29.51475)scale(0.16 -0.16)">
       <use xlink:href="#DejaVuSans-30"/>
       <use xlink:href="#DejaVuSans-2e" x="63.623047"/>
       <use xlink:href="#DejaVuSans-30" x="95.410156"/>
       <use xlink:href="#DejaVuSans-32" x="159.033203"/>
      </g>
     </g>
    </g>
    <g id="ytick_5">
     <g id="line2d_21">
      <path d="M 87.912 10.044 
L 530.136 10.044 
" clip-path="url(#p5235d1788e)" style="fill: none; stroke: #ededed; stroke-width: 0.7; stroke-linecap: square"/>
     </g>
     <g id="line2d_22">
      <g>
       <use xlink:href="#mb42bdb865b" x="87.912" y="10.044" style="fill: #222222; stroke: #222222; stroke-width: 0.9"/>
      </g>
     </g>
     <g id="text_12">
      <!-- 0.04 -->
      <g style="fill: #222222" transform="translate(44.787 16.12275)scale(0.16 -0.16)">
       <use xlink:href="#DejaVuSans-30"/>
       <use xlink:href="#DejaVuSans-2e" x="63.623047"/>
       <use xlink:href="#DejaVuSans-30" x="95.410156"/>
       <use xlink:href="#DejaVuSans-34" x="159.033203"/>
      </g>
     </g>
    </g>
    <g id="text_13">
     <!-- $\Delta I/I$ -->
     <g transform="translate(24.012156 53.838)rotate(-90)scale(0.21 -0.21)">
      <defs>
       <path id="DejaVuSans-394" d="M 2188 4044 
L 906 525 
L 3472 525 
L 2188 4044 
z
M 50 0 
L 1831 4666 
L 2547 4666 
L 4325 0 
L 50 0 
z
" transform="scale(0.015625)"/>
       <path id="DejaVuSans-Oblique-49" d="M 1081 4666 
L 1716 4666 
L 806 0 
L 172 0 
L 1081 4666 
z
" transform="scale(0.015625)"/>
       <path id="DejaVuSans-2f" d="M 1625 4666 
L 2156 4666 
L 531 -594 
L 0 -594 
L 1625 4666 
z
" transform="scale(0.015625)"/>
      </defs>
      <use xlink:href="#DejaVuSans-394" transform="translate(0 0.09375)"/>
      <use xlink:href="#DejaVuSans-Oblique-49" transform="translate(68.408203 0.09375)"/>
      <use xlink:href="#DejaVuSans-2f" transform="translate(97.900391 0.09375)"/>
      <use xlink:href="#DejaVuSans-Oblique-49" transform="translate(131.591797 0.09375)"/>
     </g>
    </g>
   </g>
   <g id="line2d_23">
    <path d="M 87.912 20.458161 
L 90.42907 12.64097 
L 95.46321 13.468966 
L 97.980279 13.637991 
L 100.497349 13.654668 
L 103.014419 13.374416 
L 105.53149 13.360787 
L 108.048558 13.467118 
L 115.599769 15.225227 
L 120.633909 16.755271 
L 123.150979 17.757652 
L 125.668047 18.606764 
L 128.185117 19.266229 
L 133.219257 19.742114 
L 138.253397 18.474473 
L 140.770465 17.801214 
L 143.287537 17.761925 
L 148.321678 17.403581 
L 150.838745 17.617416 
L 153.355818 18.160209 
L 155.872885 18.914198 
L 158.389958 19.946807 
L 160.907026 20.729176 
L 163.424093 21.780341 
L 165.941166 22.669953 
L 178.526514 30.159479 
L 181.043581 31.518011 
L 183.560649 32.684557 
L 188.594794 33.460885 
L 191.111862 33.404548 
L 193.628929 34.305643 
L 196.146007 35.463849 
L 198.663075 37.137407 
L 201.180142 39.064037 
L 203.69721 43.312574 
L 208.731355 53.83736 
L 211.248423 54.46982 
L 213.76549 53.759719 
L 216.282558 52.779065 
L 218.799636 53.528294 
L 223.833771 54.459317 
L 226.350838 55.434884 
L 228.867916 56.054324 
L 233.902051 56.883859 
L 236.419119 57.296171 
L 238.936186 57.358655 
L 241.453264 57.739283 
L 243.970332 59.018624 
L 246.487399 59.869163 
L 249.004467 60.495353 
L 251.521545 60.638211 
L 254.038612 61.097949 
L 256.55568 61.01752 
L 259.072747 60.78932 
L 261.589815 59.45443 
L 264.106893 57.890659 
L 266.62395 56.959568 
L 271.658106 56.961704 
L 274.175163 55.81668 
L 276.692241 55.50979 
L 281.726376 55.756452 
L 284.243454 55.983239 
L 286.760511 53.449849 
L 291.794667 47.393641 
L 294.311724 47.254956 
L 296.828802 48.019163 
L 299.345858 49.564702 
L 301.862937 50.636955 
L 304.380015 52.388562 
L 306.897071 52.875945 
L 309.41415 53.616641 
L 311.931206 51.393053 
L 314.448284 48.711904 
L 316.965363 45.591901 
L 321.999497 44.399466 
L 324.516554 43.973169 
L 327.033632 44.03126 
L 329.55071 43.80084 
L 332.067767 44.417356 
L 334.584845 44.191453 
L 337.101923 42.810636 
L 339.61898 40.53988 
L 342.136058 38.059766 
L 344.653115 38.124727 
L 347.170193 37.788995 
L 349.687271 38.324917 
L 352.204328 38.568941 
L 354.721406 38.035699 
L 357.238463 37.204042 
L 359.755541 36.009335 
L 362.272619 37.228911 
L 364.789676 38.822339 
L 367.306754 40.116305 
L 369.823832 39.479641 
L 372.340889 37.92119 
L 374.857967 35.90907 
L 377.375024 34.317615 
L 379.892102 32.94711 
L 382.40918 32.312759 
L 384.926237 32.059865 
L 389.960372 35.873385 
L 392.47745 37.911245 
L 405.062798 37.851821 
L 410.096933 37.22181 
L 417.648146 38.732699 
L 425.199359 36.577296 
L 427.716437 36.336075 
L 430.233494 36.39018 
L 435.267629 35.967814 
L 442.818842 29.419367 
L 445.335899 29.045528 
L 450.370055 29.952065 
L 452.887112 31.072124 
L 455.404211 31.613841 
L 457.921268 32.458137 
L 460.438325 32.426058 
L 462.955424 31.053255 
L 465.472481 29.362581 
L 467.989538 27.870861 
L 470.506595 27.627531 
L 475.540751 27.688274 
L 483.091964 28.761276 
L 485.609021 28.852344 
L 490.643177 33.919765 
L 493.160234 36.631673 
L 495.677333 36.797988 
L 500.711447 37.714225 
L 503.228504 37.849617 
L 505.745603 37.467289 
L 510.779717 35.82645 
L 515.813873 33.469496 
L 518.33093 32.497087 
L 523.365086 32.342785 
L 525.882143 33.271564 
L 528.399242 34.586739 
L 528.399242 34.586739 
" clip-path="url(#p5235d1788e)" style="fill: none; stroke: #d62728; stroke-width: 2.35; stroke-linecap: square"/>
   </g>
   <g id="line2d_24">
    <path d="M 87.912 17.537748 
L 90.42907 8.497077 
L 92.94614 9.512911 
L 95.46321 10.011104 
L 97.980279 9.900879 
L 103.014419 9.079472 
L 105.53149 8.794508 
L 108.048558 8.674937 
L 110.565628 9.454045 
L 113.082699 10.473054 
L 115.599769 11.668973 
L 118.116839 12.366704 
L 120.633909 13.720562 
L 123.150979 15.356734 
L 125.668047 16.723021 
L 128.185117 17.376383 
L 133.219257 17.631285 
L 140.770465 12.479713 
L 143.287537 12.295216 
L 148.321678 11.630454 
L 150.838745 11.677878 
L 153.355818 12.08199 
L 155.872885 13.132629 
L 158.389958 14.494367 
L 165.941166 17.155996 
L 170.975306 21.103168 
L 173.492374 23.552965 
L 176.009446 26.269026 
L 178.526514 29.322802 
L 181.043581 32.064067 
L 183.560649 34.188731 
L 186.077727 34.384302 
L 188.594794 33.997457 
L 191.111862 33.096917 
L 193.628929 34.171502 
L 196.146007 36.882995 
L 198.663075 40.775134 
L 201.180142 45.013602 
L 203.69721 51.312563 
L 206.214277 59.217731 
L 208.731355 66.608216 
L 211.248423 66.580051 
L 213.76549 63.748054 
L 216.282558 60.423698 
L 223.833771 61.884682 
L 226.350838 63.021911 
L 228.867916 63.581308 
L 231.384984 64.370658 
L 233.902051 64.7913 
L 236.419119 64.729183 
L 238.936186 64.343229 
L 241.453264 64.934838 
L 243.970332 67.531561 
L 246.487399 69.784584 
L 249.004467 71.592248 
L 251.521545 72.642403 
L 254.038612 73.483104 
L 256.55568 73.606146 
L 259.072747 73.336298 
L 261.589815 71.918927 
L 264.106893 69.819332 
L 266.62395 68.265758 
L 269.141028 67.820336 
L 271.658106 67.929012 
L 274.175163 67.089039 
L 276.692241 67.31481 
L 279.209298 67.849219 
L 284.243454 68.64056 
L 289.277589 58.033813 
L 291.794667 52.128994 
L 294.311724 51.956711 
L 296.828802 53.007138 
L 301.862937 57.648924 
L 304.380015 60.831371 
L 309.41415 64.034141 
L 311.931206 60.136079 
L 314.448284 55.413573 
L 316.965363 49.633668 
L 319.482419 48.213685 
L 321.999497 46.943683 
L 324.516554 46.300561 
L 327.033632 46.2331 
L 329.55071 45.663692 
L 332.067767 45.817857 
L 334.584845 44.880305 
L 337.101923 41.052685 
L 342.136058 31.538137 
L 344.653115 31.328997 
L 347.170193 30.674454 
L 349.687271 30.930324 
L 352.204328 30.517269 
L 354.721406 29.274775 
L 359.755541 26.371021 
L 362.272619 28.544486 
L 364.789676 31.104098 
L 367.306754 33.076514 
L 369.823832 31.894842 
L 372.340889 29.32919 
L 374.857967 26.370344 
L 377.375024 23.727977 
L 379.892102 21.768183 
L 382.40918 20.733668 
L 384.926237 20.403717 
L 387.443315 24.671918 
L 392.47745 33.861585 
L 394.994528 33.963194 
L 407.579876 33.236796 
L 410.096933 33.247094 
L 412.614011 34.914238 
L 415.131089 37.294076 
L 417.648146 39.069139 
L 420.165224 38.621957 
L 422.682281 37.598747 
L 425.199359 37.158959 
L 427.716437 37.014202 
L 430.233494 37.246611 
L 435.267629 36.193899 
L 442.818842 22.896447 
L 445.335899 22.06697 
L 447.852998 22.336313 
L 450.370055 23.346689 
L 452.887112 25.490768 
L 455.404211 26.846195 
L 457.921268 27.974227 
L 460.438325 27.800124 
L 462.955424 25.389625 
L 465.472481 22.63082 
L 467.989538 20.11428 
L 470.506595 20.247616 
L 475.540751 22.329306 
L 478.057808 23.52778 
L 483.091964 24.945403 
L 485.609021 25.478824 
L 493.160234 40.05135 
L 495.677333 40.351762 
L 500.711447 41.593946 
L 503.228504 41.529427 
L 505.745603 40.646619 
L 510.779717 37.446402 
L 513.296816 34.960987 
L 515.813873 32.833885 
L 518.33093 31.045426 
L 520.848029 30.764584 
L 523.365086 30.71619 
L 525.882143 32.081895 
L 528.399242 34.061415 
L 528.399242 34.061415 
" clip-path="url(#p5235d1788e)" style="fill: none; stroke: #2ca02c; stroke-width: 2.35; stroke-linecap: square"/>
   </g>
   <g id="line2d_25">
    <path d="M 87.912 16.021346 
L 90.42907 6.219713 
L 92.94614 6.77087 
L 95.46321 7.469554 
L 100.497349 7.897964 
L 103.014419 7.809413 
L 105.53149 7.531806 
L 108.048558 7.558616 
L 110.565628 8.861707 
L 115.599769 11.627695 
L 118.116839 12.247881 
L 120.633909 13.22224 
L 123.150979 14.81221 
L 125.668047 16.030593 
L 128.185117 17.04798 
L 130.702187 17.423724 
L 133.219257 17.395937 
L 138.253397 14.501431 
L 140.770465 13.427419 
L 143.287537 13.495348 
L 148.321678 13.377959 
L 150.838745 13.150594 
L 153.355818 13.510561 
L 155.872885 14.573835 
L 158.389958 16.317938 
L 163.424093 20.791871 
L 165.941166 23.296296 
L 168.458233 25.510758 
L 173.492374 29.196971 
L 176.009446 31.340692 
L 178.526514 33.30257 
L 181.043581 35.54915 
L 183.560649 37.206487 
L 186.077727 37.323411 
L 188.594794 37.059451 
L 191.111862 36.063224 
L 193.628929 37.152843 
L 196.146007 38.96042 
L 198.663075 41.95052 
L 201.180142 44.606334 
L 203.69721 49.268985 
L 206.214277 54.876201 
L 208.731355 60.839912 
L 211.248423 61.012633 
L 213.76549 59.720671 
L 216.282558 57.821952 
L 218.799636 59.083754 
L 221.316703 60.120906 
L 223.833771 61.37072 
L 228.867916 63.264302 
L 231.384984 63.650249 
L 233.902051 64.560568 
L 241.453264 62.002597 
L 243.970332 63.650836 
L 249.004467 65.999639 
L 251.521545 66.160249 
L 254.038612 67.019813 
L 256.55568 66.594384 
L 259.072747 66.819207 
L 264.106893 62.915682 
L 266.62395 60.979806 
L 269.141028 60.636958 
L 271.658106 60.645864 
L 274.175163 60.111706 
L 276.692241 59.828301 
L 279.209298 60.151578 
L 281.726376 59.945738 
L 284.243454 60.616706 
L 289.277589 52.139519 
L 291.794667 47.394287 
L 294.311724 47.558005 
L 296.828802 48.901531 
L 299.345858 51.315155 
L 301.862937 52.945145 
L 304.380015 55.60727 
L 306.897071 56.550808 
L 309.41415 58.015072 
L 314.448284 51.473346 
L 316.965363 47.615194 
L 319.482419 46.945743 
L 321.999497 46.025615 
L 324.516554 45.247826 
L 329.55071 45.804071 
L 332.067767 46.82224 
L 334.584845 46.260491 
L 337.101923 43.600861 
L 339.61898 40.199448 
L 342.136058 37.22674 
L 344.653115 37.625603 
L 347.170193 37.361472 
L 349.687271 37.634653 
L 354.721406 36.925551 
L 357.238463 36.959747 
L 359.755541 36.493274 
L 362.272619 37.148612 
L 364.789676 37.633088 
L 367.306754 38.742839 
L 369.823832 38.420906 
L 372.340889 37.115026 
L 374.857967 34.882071 
L 379.892102 32.528082 
L 384.926237 31.082456 
L 387.443315 33.261524 
L 389.960372 35.619426 
L 392.47745 38.252125 
L 394.994528 38.072018 
L 397.511585 38.257457 
L 400.028663 38.191535 
L 407.579876 39.67192 
L 410.096933 39.451208 
L 412.614011 39.963007 
L 415.131089 40.757356 
L 417.648146 40.950575 
L 420.165224 39.865701 
L 422.682281 38.01062 
L 427.716437 36.166841 
L 430.233494 35.843906 
L 432.750572 35.676396 
L 435.267629 35.620527 
L 437.784707 32.28423 
L 440.301785 27.863401 
L 442.818842 23.089378 
L 445.335899 22.014558 
L 447.852998 22.196108 
L 450.370055 23.285116 
L 452.887112 24.540484 
L 455.404211 26.045037 
L 457.921268 27.153271 
L 460.438325 27.660619 
L 462.955424 25.905095 
L 465.472481 23.960903 
L 467.989538 22.307968 
L 470.506595 22.819451 
L 473.023694 23.704551 
L 475.540751 24.163146 
L 478.057808 24.508611 
L 480.574907 24.341884 
L 483.091964 24.848571 
L 485.609021 25.132247 
L 488.12612 28.828121 
L 493.160234 34.848242 
L 495.677333 34.743426 
L 500.711447 36.008235 
L 503.228504 36.411477 
L 505.745603 35.547046 
L 508.26266 34.433504 
L 510.779717 32.975207 
L 515.813873 29.429767 
L 518.33093 28.604205 
L 523.365086 29.165392 
L 525.882143 30.010719 
L 528.399242 32.493397 
L 528.399242 32.493397 
" clip-path="url(#p5235d1788e)" style="fill: none; stroke: #1f77b4; stroke-width: 2.35; stroke-linecap: square"/>
   </g>
   <g id="patch_3">
    <path d="M 87.912 63.612 
L 87.912 10.044 
" style="fill: none; stroke: #222222; stroke-width: 0.95; stroke-linejoin: miter; stroke-linecap: square"/>
   </g>
   <g id="patch_4">
    <path d="M 530.136 63.612 
L 530.136 10.044 
" style="fill: none; stroke: #222222; stroke-width: 0.95; stroke-linejoin: miter; stroke-linecap: square"/>
   </g>
   <g id="patch_5">
    <path d="M 87.912 63.612 
L 530.136 63.612 
" style="fill: none; stroke: #222222; stroke-width: 0.95; stroke-linejoin: miter; stroke-linecap: square"/>
   </g>
   <g id="patch_6">
    <path d="M 87.912 10.044 
L 530.136 10.044 
" style="fill: none; stroke: #222222; stroke-width: 0.95; stroke-linejoin: miter; stroke-linecap: square"/>
   </g>
  </g>
 </g>
 <defs>
  <clipPath id="p5235d1788e">
   <rect x="87.912" y="10.044" width="442.224" height="53.568"/>
  </clipPath>
 </defs>
</svg>
