<?xml version="1.0" encoding="utf-8" standalone="no"?>
<!DOCTYPE svg PUBLIC "-//W3C//DTD SVG 1.1//EN"
  "http://www.w3.org/Graphics/SVG/1.1/DTD/svg11.dtd">
<svg xmlns:xlink="http://www.w3.org/1999/xlink" width="532.8pt" height="111.6pt" viewBox="0 0 532.8 111.6" xmlns="http://www.w3.org/2000/svg" version="1.1">
 <metadata>
  <rdf:RDF xmlns:dc="http://purl.org/dc/elements/1.1/" xmlns:cc="http://creativecommons.org/ns#" xmlns:rdf="http://www.w3.org/1999/02/22-rdf-syntax-ns#">
   <cc:Work>
    <dc:type rdf:resource="http://purl.org/dc/dcmitype/StillImage"/>
    <dc:date>2026-05-24T19:32:18.690401</dc:date>
    <dc:format>image/svg+xml</dc:format>
    <dc:creator>
     <cc:Agent>
      <dc:title>Matplotlib v3.5.3, https://matplotlib.org/</dc:title>
     </cc:Agent>
    </dc:creator>
   </cc:Work>
  </rdf:RDF>
 </metadata>
 <defs>
  <style type="text/css">*{stroke-linejoin: round; stroke-linecap: butt}</style>
 </defs>
 <g id="figure_1">
  <g id="patch_1">
   <path d="M 0 111.6 
L 532.8 111.6 
L 532.8 0 
L 0 0 
z
" style="fill: #ffffff"/>
  </g>
  <g id="axes_1">
   <g id="patch_2">
    <path d="M 87.912 63.612 
L 530.136 63.612 
L 530.136 10.044 
L 87.912 10.044 
z
" style="fill: #ffffff"/>
   </g>
   <g id="matplotlib.axis_1">
    <g id="xtick_1">
     <g id="line2d_1">
      <path d="M 87.912 63.612 
L 87.912 10.044 
" clip-path="url(#p1c0da09079)" style="fill: none; stroke: #ededed; stroke-width: 0.7; stroke-linecap: square"/>
     </g>
     <g id="line2d_2">
      <defs>
       <path id="m03f6fa1f5e" d="M 0 0 
L 0 4 
" style="stroke: #222222; stroke-width: 0.9"/>
      </defs>
      <g>
       <use xlink:href="#m03f6fa1f5e" x="87.912" y="63.612" style="fill: #222222; stroke: #222222; stroke-width: 0.9"/>
      </g>
     </g>
     <g id="text_1">
      <!-- 0 -->
      <g style="fill: #222222" transform="translate(82.822 83.2695)scale(0.16 -0.16)">
       <defs>
        <path id="DejaVuSans-30" d="M 2034 4250 
Q 1547 4250 1301 3770 
Q 1056 3291 1056 2328 
Q 1056 1369 1301 889 
Q 1547 409 2034 409 
Q 2525 409 2770 889 
Q 3016 1369 3016 2328 
Q 3016 3291 2770 3770 
Q 2525 4250 2034 4250 
z
M 2034 4750 
Q 2819 4750 3233 4129 
Q 3647 3509 3647 2328 
Q 3647 1150 3233 529 
Q 2819 -91 2034 -91 
Q 1250 -91 836 529 
Q 422 1150 422 2328 
Q 422 3509 836 4129 
Q 1250 4750 2034 4750 
z
" transform="scale(0.015625)"/>
       </defs>
       <use xlink:href="#DejaVuSans-30"/>
      </g>
     </g>
    </g>
    <g id="xtick_2">
     <g id="line2d_3">
      <path d="M 176.3568 63.612 
L 176.3568 10.044 
" clip-path="url(#p1c0da09079)" style="fill: none; stroke: #ededed; stroke-width: 0.7; stroke-linecap: square"/>
     </g>
     <g id="line2d_4">
      <g>
       <use xlink:href="#m03f6fa1f5e" x="176.3568" y="63.612" style="fill: #222222; stroke: #222222; stroke-width: 0.9"/>
      </g>
     </g>
     <g id="text_2">
      <!-- 1 -->
      <g style="fill: #222222" transform="translate(171.2668 83.2695)scale(0.16 -0.16)">
       <defs>
        <path id="DejaVuSans-31" d="M 794 531 
L 1825 531 
L 1825 4091 
L 703 3866 
L 703 4441 
L 1819 4666 
L 2450 4666 
L 2450 531 
L 3481 531 
L 3481 0 
L 794 0 
L 794 531 
z
" transform="scale(0.015625)"/>
       </defs>
       <use xlink:href="#DejaVuSans-31"/>
      </g>
     </g>
    </g>
    <g id="xtick_3">
     <g id="line2d_5">
      <path d="M 264.8016 63.612 
L 264.8016 10.044 
" clip-path="url(#p1c0da09079)" style="fill: none; stroke: #ededed; stroke-width: 0.7; stroke-linecap: square"/>
     </g>
     <g id="line2d_6">
      <g>
       <use xlink:href="#m03f6fa1f5e" x="264.8016" y="63.612" style="fill: #222222; stroke: #222222; stroke-width: 0.9"/>
      </g>
     </g>
     <g id="text_3">
      <!-- 2 -->
      <g style="fill: #222222" transform="translate(259.7116 83.2695)scale(0.16 -0.16)">
       <defs>
        <path id="DejaVuSans-32" d="M 1228 531 
L 3431 531 
L 3431 0 
L 469 0 
L 469 531 
Q 828 903 1448 1529 
Q 2069 2156 2228 2338 
Q 2531 2678 2651 2914 
Q 2772 3150 2772 3378 
Q 2772 3750 2511 3984 
Q 2250 4219 1831 4219 
Q 1534 4219 1204 4116 
Q 875 4013 500 3803 
L 500 4441 
Q 881 4594 1212 4672 
Q 1544 4750 1819 4750 
Q 2544 4750 2975 4387 
Q 3406 4025 3406 3419 
Q 3406 3131 3298 2873 
Q 3191 2616 2906 2266 
Q 2828 2175 2409 1742 
Q 1991 1309 1228 531 
z
" transform="scale(0.015625)"/>
       </defs>
       <use xlink:href="#DejaVuSans-32"/>
      </g>
     </g>
    </g>
    <g id="xtick_4">
     <g id="line2d_7">
      <path d="M 353.2464 63.612 
L 353.2464 10.044 
" clip-path="url(#p1c0da09079)" style="fill: none; stroke: #ededed; stroke-width: 0.7; stroke-linecap: square"/>
     </g>
     <g id="line2d_8">
      <g>
       <use xlink:href="#m03f6fa1f5e" x="353.2464" y="63.612" style="fill: #222222; stroke: #222222; stroke-width: 0.9"/>
      </g>
     </g>
     <g id="text_4">
      <!-- 3 -->
      <g style="fill: #222222" transform="translate(348.1564 83.2695)scale(0.16 -0.16)">
       <defs>
        <path id="DejaVuSans-33" d="M 2597 2516 
Q 3050 2419 3304 2112 
Q 3559 1806 3559 1356 
Q 3559 666 3084 287 
Q 2609 -91 1734 -91 
Q 1441 -91 1130 -33 
Q 819 25 488 141 
L 488 750 
Q 750 597 1062 519 
Q 1375 441 1716 441 
Q 2309 441 2620 675 
Q 2931 909 2931 1356 
Q 2931 1769 2642 2001 
Q 2353 2234 1838 2234 
L 1294 2234 
L 1294 2753 
L 1863 2753 
Q 2328 2753 2575 2939 
Q 2822 3125 2822 3475 
Q 2822 3834 2567 4026 
Q 2313 4219 1838 4219 
Q 1578 4219 1281 4162 
Q 984 4106 628 3988 
L 628 4550 
Q 988 4650 1302 4700 
Q 1616 4750 1894 4750 
Q 2613 4750 3031 4423 
Q 3450 4097 3450 3541 
Q 3450 3153 3228 2886 
Q 3006 2619 2597 2516 
z
" transform="scale(0.015625)"/>
       </defs>
       <use xlink:href="#DejaVuSans-33"/>
      </g>
     </g>
    </g>
    <g id="xtick_5">
     <g id="line2d_9">
      <path d="M 441.6912 63.612 
L 441.6912 10.044 
" clip-path="url(#p1c0da09079)" style="fill: none; stroke: #ededed; stroke-width: 0.7; stroke-linecap: square"/>
     </g>
     <g id="line2d_10">
      <g>
       <use xlink:href="#m03f6fa1f5e" x="441.6912" y="63.612" style="fill: #222222; stroke: #222222; stroke-width: 0.9"/>
      </g>
     </g>
     <g id="text_5">
      <!-- 4 -->
      <g style="fill: #222222" transform="translate(436.6012 83.2695)scale(0.16 -0.16)">
       <defs>
        <path id="DejaVuSans-34" d="M 2419 4116 
L 825 1625 
L 2419 1625 
L 2419 4116 
z
M 2253 4666 
L 3047 4666 
L 3047 1625 
L 3713 1625 
L 3713 1100 
L 3047 1100 
L 3047 0 
L 2419 0 
L 2419 1100 
L 313 1100 
L 313 1709 
L 2253 4666 
z
" transform="scale(0.015625)"/>
       </defs>
       <use xlink:href="#DejaVuSans-34"/>
      </g>
     </g>
    </g>
    <g id="xtick_6">
     <g id="line2d_11">
      <path d="M 530.136 63.612 
L 530.136 10.044 
" clip-path="url(#p1c0da09079)" style="fill: none; stroke: #ededed; stroke-width: 0.7; stroke-linecap: square"/>
     </g>
     <g id="line2d_12">
      <g>
       <use xlink:href="#m03f6fa1f5e" x="530.136" y="63.612" style="fill: #222222; stroke: #222222; stroke-width: 0.9"/>
      </g>
     </g>
     <g id="text_6">
      <!-- 5 -->
      <g style="fill: #222222" transform="translate(525.046 83.2695)scale(0.16 -0.16)">
       <defs>
        <path id="DejaVuSans-35" d="M 691 4666 
L 3169 4666 
L 3169 4134 
L 1269 4134 
L 1269 2991 
Q 1406 3038 1543 3061 
Q 1681 3084 1819 3084 
Q 2600 3084 3056 2656 
Q 3513 2228 3513 1497 
Q 3513 744 3044 326 
Q 2575 -91 1722 -91 
Q 1428 -91 1123 -41 
Q 819 9 494 109 
L 494 744 
Q 775 591 1075 516 
Q 1375 441 1709 441 
Q 2250 441 2565 725 
Q 2881 1009 2881 1497 
Q 2881 1984 2565 2268 
Q 2250 2553 1709 2553 
Q 1456 2553 1204 2497 
Q 953 2441 691 2322 
L 691 4666 
z
" transform="scale(0.015625)"/>
       </defs>
       <use xlink:href="#DejaVuSans-35"/>
      </g>
     </g>
    </g>
    <g id="text_7">
     <!-- Time (s) -->
     <g transform="translate(268.366188 102.793875)scale(0.2 -0.2)">
      <defs>
       <path id="DejaVuSans-54" d="M -19 4666 
L 3928 4666 
L 3928 4134 
L 2272 4134 
L 2272 0 
L 1638 0 
L 1638 4134 
L -19 4134 
L -19 4666 
z
" transform="scale(0.015625)"/>
       <path id="DejaVuSans-69" d="M 603 3500 
L 1178 3500 
L 1178 0 
L 603 0 
L 603 3500 
z
M 603 4863 
L 1178 4863 
L 1178 4134 
L 603 4134 
L 603 4863 
z
" transform="scale(0.015625)"/>
       <path id="DejaVuSans-6d" d="M 3328 2828 
Q 3544 3216 3844 3400 
Q 4144 3584 4550 3584 
Q 5097 3584 5394 3201 
Q 5691 2819 5691 2113 
L 5691 0 
L 5113 0 
L 5113 2094 
Q 5113 2597 4934 2840 
Q 4756 3084 4391 3084 
Q 3944 3084 3684 2787 
Q 3425 2491 3425 1978 
L 3425 0 
L 2847 0 
L 2847 2094 
Q 2847 2600 2669 2842 
Q 2491 3084 2119 3084 
Q 1678 3084 1418 2786 
Q 1159 2488 1159 1978 
L 1159 0 
L 581 0 
L 581 3500 
L 1159 3500 
L 1159 2956 
Q 1356 3278 1631 3431 
Q 1906 3584 2284 3584 
Q 2666 3584 2933 3390 
Q 3200 3197 3328 2828 
z
" transform="scale(0.015625)"/>
       <path id="DejaVuSans-65" d="M 3597 1894 
L 3597 1613 
L 953 1613 
Q 991 1019 1311 708 
Q 1631 397 2203 397 
Q 2534 397 2845 478 
Q 3156 559 3463 722 
L 3463 178 
Q 3153 47 2828 -22 
Q 2503 -91 2169 -91 
Q 1331 -91 842 396 
Q 353 884 353 1716 
Q 353 2575 817 3079 
Q 1281 3584 2069 3584 
Q 2775 3584 3186 3129 
Q 3597 2675 3597 1894 
z
M 3022 2063 
Q 3016 2534 2758 2815 
Q 2500 3097 2075 3097 
Q 1594 3097 1305 2825 
Q 1016 2553 972 2059 
L 3022 2063 
z
" transform="scale(0.015625)"/>
       <path id="DejaVuSans-20" transform="scale(0.015625)"/>
       <path id="DejaVuSans-28" d="M 1984 4856 
Q 1566 4138 1362 3434 
Q 1159 2731 1159 2009 
Q 1159 1288 1364 580 
Q 1569 -128 1984 -844 
L 1484 -844 
Q 1016 -109 783 600 
Q 550 1309 550 2009 
Q 550 2706 781 3412 
Q 1013 4119 1484 4856 
L 1984 4856 
z
" transform="scale(0.015625)"/>
       <path id="DejaVuSans-73" d="M 2834 3397 
L 2834 2853 
Q 2591 2978 2328 3040 
Q 2066 3103 1784 3103 
Q 1356 3103 1142 2972 
Q 928 2841 928 2578 
Q 928 2378 1081 2264 
Q 1234 2150 1697 2047 
L 1894 2003 
Q 2506 1872 2764 1633 
Q 3022 1394 3022 966 
Q 3022 478 2636 193 
Q 2250 -91 1575 -91 
Q 1294 -91 989 -36 
Q 684 19 347 128 
L 347 722 
Q 666 556 975 473 
Q 1284 391 1588 391 
Q 1994 391 2212 530 
Q 2431 669 2431 922 
Q 2431 1156 2273 1281 
Q 2116 1406 1581 1522 
L 1381 1569 
Q 847 1681 609 1914 
Q 372 2147 372 2553 
Q 372 3047 722 3315 
Q 1072 3584 1716 3584 
Q 2034 3584 2315 3537 
Q 2597 3491 2834 3397 
z
" transform="scale(0.015625)"/>
       <path id="DejaVuSans-29" d="M 513 4856 
L 1013 4856 
Q 1481 4119 1714 3412 
Q 1947 2706 1947 2009 
Q 1947 1309 1714 600 
Q 1481 -109 1013 -844 
L 513 -844 
Q 928 -128 1133 580 
Q 1338 1288 1338 2009 
Q 1338 2731 1133 3434 
Q 928 4138 513 4856 
z
" transform="scale(0.015625)"/>
      </defs>
      <use xlink:href="#DejaVuSans-54"/>
      <use xlink:href="#DejaVuSans-69" x="57.958984"/>
      <use xlink:href="#DejaVuSans-6d" x="85.742188"/>
      <use xlink:href="#DejaVuSans-65" x="183.154297"/>
      <use xlink:href="#DejaVuSans-20" x="244.677734"/>
      <use xlink:href="#DejaVuSans-28" x="276.464844"/>
      <use xlink:href="#DejaVuSans-73" x="315.478516"/>
      <use xlink:href="#DejaVuSans-29" x="367.578125"/>
     </g>
    </g>
   </g>
   <g id="matplotlib.axis_2">
    <g id="ytick_1">
     <g id="line2d_13">
      <path d="M 87.912 63.612 
L 530.136 63.612 
" clip-path="url(#p1c0da09079)" style="fill: none; stroke: #ededed; stroke-width: 0.7; stroke-linecap: square"/>
     </g>
     <g id="line2d_14">
      <defs>
       <path id="mde2f47fca6" d="M 0 0 
L -4 0 
" style="stroke: #222222; stroke-width: 0.9"/>
      </defs>
      <g>
       <use xlink:href="#mde2f47fca6" x="87.912" y="63.612" style="fill: #222222; stroke: #222222; stroke-width: 0.9"/>
      </g>
     </g>
     <g id="text_8">
      <!-- −0.04 -->
      <g style="fill: #222222" transform="translate(31.3795 69.69075)scale(0.16 -0.16)">
       <defs>
        <path id="DejaVuSans-2212" d="M 678 2272 
L 4684 2272 
L 4684 1741 
L 678 1741 
L 678 2272 
z
" transform="scale(0.015625)"/>
        <path id="DejaVuSans-2e" d="M 684 794 
L 1344 794 
L 1344 0 
L 684 0 
L 684 794 
z
" transform="scale(0.015625)"/>
       </defs>
       <use xlink:href="#DejaVuSans-2212"/>
       <use xlink:href="#DejaVuSans-30" x="83.789062"/>
       <use xlink:href="#DejaVuSans-2e" x="147.412109"/>
       <use xlink:href="#DejaVuSans-30" x="179.199219"/>
       <use xlink:href="#DejaVuSans-34" x="242.822266"/>
      </g>
     </g>
    </g>
    <g id="ytick_2">
     <g id="line2d_15">
      <path d="M 87.912 50.22 
L 530.136 50.22 
" clip-path="url(#p1c0da09079)" style="fill: none; stroke: #ededed; stroke-width: 0.7; stroke-linecap: square"/>
     </g>
     <g id="line2d_16">
      <g>
       <use xlink:href="#mde2f47fca6" x="87.912" y="50.22" style="fill: #222222; stroke: #222222; stroke-width: 0.9"/>
      </g>
     </g>
     <g id="text_9">
      <!-- −0.02 -->
      <g style="fill: #222222" transform="translate(31.3795 56.29875)scale(0.16 -0.16)">
       <use xlink:href="#DejaVuSans-2212"/>
       <use xlink:href="#DejaVuSans-30" x="83.789062"/>
       <use xlink:href="#DejaVuSans-2e" x="147.412109"/>
       <use xlink:href="#DejaVuSans-30" x="179.199219"/>
       <use xlink:href="#DejaVuSans-32" x="242.822266"/>
      </g>
     </g>
    </g>
    <g id="ytick_3">
     <g id="line2d_17">
      <path d="M 87.912 36.828 
L 530.136 36.828 
" clip-path="url(#p1c0da09079)" style="fill: none; stroke: #ededed; stroke-width: 0.7; stroke-linecap: square"/>
     </g>
     <g id="line2d_18">
      <g>
       <use xlink:href="#mde2f47fca6" x="87.912" y="36.828" style="fill: #222222; stroke: #222222; stroke-width: 0.9"/>
      </g>
     </g>
     <g id="text_10">
      <!-- 0.00 -->
      <g style="fill: #222222" transform="translate(44.787 42.90675)scale(0.16 -0.16)">
       <use xlink:href="#DejaVuSans-30"/>
       <use xlink:href="#DejaVuSans-2e" x="63.623047"/>
       <use xlink:href="#DejaVuSans-30" x="95.410156"/>
       <use xlink:href="#DejaVuSans-30" x="159.033203"/>
      </g>
     </g>
    </g>
    <g id="ytick_4">
     <g id="line2d_19">
      <path d="M 87.912 23.436 
L 530.136 23.436 
" clip-path="url(#p1c0da09079)" style="fill: none; stroke: #ededed; stroke-width: 0.7; stroke-linecap: square"/>
     </g>
     <g id="line2d_20">
      <g>
       <use xlink:href="#mde2f47fca6" x="87.912" y="23.436" style="fill: #222222; stroke: #222222; stroke-width: 0.9"/>
      </g>
     </g>
     <g id="text_11">
      <!-- 0.02 -->
      <g style="fill: #222222" transform="translate(44.787 29.51475)scale(0.16 -0.16)">
       <use xlink:href="#DejaVuSans-30"/>
       <use xlink:href="#DejaVuSans-2e" x="63.623047"/>
       <use xlink:href="#DejaVuSans-30" x="95.410156"/>
       <use xlink:href="#DejaVuSans-32" x="159.033203"/>
      </g>
     </g>
    </g>
    <g id="ytick_5">
     <g id="line2d_21">
      <path d="M 87.912 10.044 
L 530.136 10.044 
" clip-path="url(#p1c0da09079)" style="fill: none; stroke: #ededed; stroke-width: 0.7; stroke-linecap: square"/>
     </g>
     <g id="line2d_22">
      <g>
       <use xlink:href="#mde2f47fca6" x="87.912" y="10.044" style="fill: #222222; stroke: #222222; stroke-width: 0.9"/>
      </g>
     </g>
     <g id="text_12">
      <!-- 0.04 -->
      <g style="fill: #222222" transform="translate(44.787 16.12275)scale(0.16 -0.16)">
       <use xlink:href="#DejaVuSans-30"/>
       <use xlink:href="#DejaVuSans-2e" x="63.623047"/>
       <use xlink:href="#DejaVuSans-30" x="95.410156"/>
       <use xlink:href="#DejaVuSans-34" x="159.033203"/>
      </g>
     </g>
    </g>
    <g id="text_13">
     <!-- $\Delta I/I$ -->
     <g transform="translate(24.012156 53.838)rotate(-90)scale(0.21 -0.21)">
      <defs>
       <path id="DejaVuSans-394" d="M 2188 4044 
L 906 525 
L 3472 525 
L 2188 4044 
z
M 50 0 
L 1831 4666 
L 2547 4666 
L 4325 0 
L 50 0 
z
" transform="scale(0.015625)"/>
       <path id="DejaVuSans-Oblique-49" d="M 1081 4666 
L 1716 4666 
L 806 0 
L 172 0 
L 1081 4666 
z
" transform="scale(0.015625)"/>
       <path id="DejaVuSans-2f" d="M 1625 4666 
L 2156 4666 
L 531 -594 
L 0 -594 
L 1625 4666 
z
" transform="scale(0.015625)"/>
      </defs>
      <use xlink:href="#DejaVuSans-394" transform="translate(0 0.09375)"/>
      <use xlink:href="#DejaVuSans-Oblique-49" transform="translate(68.408203 0.09375)"/>
      <use xlink:href="#DejaVuSans-2f" transform="translate(97.900391 0.09375)"/>
      <use xlink:href="#DejaVuSans-Oblique-49" transform="translate(131.591797 0.09375)"/>
     </g>
    </g>
   </g>
   <g id="line2d_23">
    <path d="M 87.912 42.792224 
L 90.42907 45.656561 
L 92.94614 45.221005 
L 97.980279 43.398163 
L 100.497349 42.613026 
L 103.014419 42.823149 
L 105.53149 43.369466 
L 108.048558 43.785969 
L 110.565628 43.776964 
L 113.082699 44.122376 
L 115.599769 44.197947 
L 118.116839 44.400084 
L 120.633909 44.019292 
L 125.668047 44.936922 
L 130.702187 45.362691 
L 133.219257 44.62554 
L 135.736324 42.69298 
L 138.253397 40.190951 
L 140.770465 38.649396 
L 143.287537 38.538943 
L 148.321678 39.335148 
L 150.838745 39.593614 
L 153.355818 39.234979 
L 155.872885 38.61513 
L 158.389958 37.345833 
L 163.424093 34.058737 
L 165.941166 33.079636 
L 168.458233 32.839086 
L 170.975306 33.364952 
L 173.492374 34.575622 
L 176.009446 36.266398 
L 178.526514 37.445669 
L 181.043581 37.647025 
L 183.560649 37.345691 
L 186.077727 38.470055 
L 188.594794 39.929239 
L 191.111862 41.20581 
L 193.628929 41.164198 
L 196.146007 40.934595 
L 198.663075 40.94104 
L 201.180142 41.123083 
L 203.69721 41.086305 
L 206.214277 41.237991 
L 208.731355 40.591151 
L 211.248423 37.935042 
L 213.76549 34.696122 
L 216.282558 32.199733 
L 218.799636 31.9775 
L 221.316703 32.193382 
L 226.350838 33.172909 
L 228.867916 33.104447 
L 233.902051 33.407251 
L 236.419119 33.015465 
L 238.936186 32.016222 
L 241.453264 31.42341 
L 243.970332 31.709531 
L 246.487399 31.036861 
L 251.521545 29.275703 
L 256.55568 28.380159 
L 259.072747 28.381439 
L 264.106893 32.512111 
L 266.62395 34.048666 
L 269.141028 34.379385 
L 271.658106 34.215376 
L 274.175163 33.746241 
L 276.692241 32.599672 
L 279.209298 31.32374 
L 281.726376 30.407059 
L 284.243454 30.480543 
L 286.760511 30.336038 
L 289.277589 31.468222 
L 291.794667 31.230894 
L 294.311724 32.543865 
L 299.345858 32.949728 
L 304.380015 30.549857 
L 309.41415 30.947688 
L 311.931206 34.166275 
L 314.448284 36.771387 
L 316.965363 41.292945 
L 319.482419 43.054316 
L 321.999497 44.491247 
L 324.516554 44.229535 
L 327.033632 43.118678 
L 329.55071 42.35501 
L 332.067767 42.142587 
L 334.584845 42.374252 
L 337.101923 41.234792 
L 339.61898 39.526669 
L 342.136058 37.484059 
L 344.653115 36.064663 
L 349.687271 33.670575 
L 352.204328 33.79309 
L 354.721406 34.078002 
L 357.238463 34.830533 
L 359.755541 35.09227 
L 362.272619 33.221607 
L 364.789676 32.037478 
L 367.306754 30.573863 
L 369.823832 31.668204 
L 372.340889 32.467062 
L 374.857967 33.503083 
L 377.375024 33.941981 
L 382.40918 34.246419 
L 384.926237 33.967787 
L 387.443315 32.961814 
L 389.960372 32.07864 
L 392.47745 31.055061 
L 394.994528 31.199803 
L 402.54572 30.959868 
L 405.062798 30.201721 
L 407.579876 29.989536 
L 410.096933 29.119822 
L 412.614011 32.102029 
L 415.131089 35.858947 
L 417.648146 39.984761 
L 420.165224 40.372614 
L 422.682281 39.839544 
L 425.199359 39.143366 
L 427.716437 39.215595 
L 430.233494 39.657407 
L 432.750572 39.535698 
L 435.267629 39.135522 
L 440.301785 35.346897 
L 442.818842 34.240779 
L 445.335899 34.37974 
L 447.852998 34.817808 
L 450.370055 33.747213 
L 452.887112 33.103594 
L 455.404211 32.664318 
L 457.921268 32.34258 
L 460.438325 32.463792 
L 462.955424 34.226632 
L 465.472481 37.436712 
L 467.989538 39.834663 
L 470.506595 40.392401 
L 473.023694 40.000212 
L 478.057808 39.740252 
L 480.574907 40.250005 
L 483.091964 41.026114 
L 488.12612 42.054078 
L 493.160234 41.204128 
L 495.677333 39.678521 
L 498.19439 38.439889 
L 500.711447 37.335548 
L 503.228504 37.146728 
L 505.745603 37.420669 
L 510.779717 40.644161 
L 513.296816 40.968458 
L 518.33093 40.186946 
L 520.848029 40.386406 
L 523.365086 40.299793 
L 525.882143 39.578732 
L 528.399242 38.533659 
L 528.399242 38.533659 
" clip-path="url(#p1c0da09079)" style="fill: none; stroke: #d62728; stroke-width: 2.35; stroke-linecap: square"/>
   </g>
   <g id="line2d_24">
    <path d="M 87.912 43.870165 
L 90.42907 47.296848 
L 92.94614 46.635685 
L 100.497349 43.619489 
L 103.014419 43.477458 
L 108.048558 43.745552 
L 110.565628 43.507444 
L 113.082699 43.521493 
L 115.599769 43.402016 
L 118.116839 43.414495 
L 120.633909 43.242598 
L 123.150979 44.091549 
L 125.668047 45.077969 
L 130.702187 46.19799 
L 133.219257 45.604564 
L 135.736324 43.652315 
L 138.253397 41.146808 
L 140.770465 39.476656 
L 143.287537 39.404084 
L 145.804605 39.820599 
L 148.321678 39.999807 
L 150.838745 40.064311 
L 153.355818 39.345608 
L 155.872885 38.768678 
L 158.389958 37.446125 
L 160.907026 35.880736 
L 163.424093 33.971948 
L 165.941166 32.882775 
L 168.458233 32.38106 
L 170.975306 32.525704 
L 173.492374 33.46975 
L 178.526514 36.753752 
L 181.043581 37.511868 
L 183.560649 37.854709 
L 188.594794 40.965319 
L 191.111862 42.209953 
L 193.628929 42.19891 
L 196.146007 41.967691 
L 198.663075 42.247266 
L 201.180142 42.40608 
L 203.69721 42.329611 
L 206.214277 42.094253 
L 208.731355 41.299488 
L 211.248423 38.573608 
L 213.76549 35.268548 
L 216.282558 32.664471 
L 218.799636 32.193211 
L 223.833771 32.298095 
L 226.350838 32.526187 
L 228.867916 32.084898 
L 233.902051 31.927565 
L 236.419119 31.392872 
L 238.936186 30.432119 
L 241.453264 30.147831 
L 243.970332 31.219254 
L 246.487399 31.320981 
L 249.004467 31.149266 
L 251.521545 30.656812 
L 254.038612 30.505611 
L 256.55568 29.924513 
L 259.072747 29.964967 
L 261.589815 31.8425 
L 264.106893 33.863544 
L 266.62395 35.235722 
L 269.141028 35.340606 
L 271.658106 35.114462 
L 274.175163 34.52643 
L 276.692241 33.361029 
L 279.209298 31.827228 
L 281.726376 30.634499 
L 286.760511 29.835067 
L 289.277589 30.55368 
L 291.794667 30.077692 
L 294.311724 31.083205 
L 299.345858 31.392404 
L 301.862937 30.545553 
L 304.380015 29.842107 
L 306.897071 30.684215 
L 309.41415 31.356481 
L 311.931206 34.795203 
L 314.448284 37.423707 
L 316.965363 41.945485 
L 319.482419 43.603884 
L 321.999497 45.048391 
L 324.516554 44.780992 
L 327.033632 43.83749 
L 329.55071 43.042469 
L 332.067767 42.778876 
L 334.584845 42.814724 
L 337.101923 41.435189 
L 339.61898 39.618112 
L 342.136058 37.290408 
L 347.170193 33.835718 
L 349.687271 32.29166 
L 352.204328 32.252217 
L 354.721406 32.363023 
L 357.238463 33.018128 
L 359.755541 33.475475 
L 362.272619 32.082707 
L 364.789676 31.607565 
L 367.306754 30.64527 
L 369.823832 32.091001 
L 372.340889 32.975437 
L 374.857967 34.019986 
L 377.375024 34.257822 
L 382.40918 34.409657 
L 384.926237 34.311087 
L 392.47745 30.921989 
L 394.994528 30.851654 
L 397.511585 30.645089 
L 402.54572 29.767254 
L 405.062798 28.708112 
L 407.579876 28.336478 
L 410.096933 27.295434 
L 412.614011 30.2635 
L 415.131089 34.183242 
L 417.648146 38.865616 
L 420.165224 39.77383 
L 422.682281 39.792803 
L 425.199359 39.419976 
L 427.716437 39.581056 
L 430.233494 39.893503 
L 432.750572 39.58231 
L 435.267629 39.140946 
L 440.301785 35.308036 
L 442.818842 34.136668 
L 445.335899 34.152243 
L 447.852998 34.348551 
L 450.370055 32.893273 
L 452.887112 31.960165 
L 455.404211 31.414671 
L 457.921268 30.989077 
L 460.438325 30.870175 
L 462.955424 32.336752 
L 465.472481 35.267491 
L 467.989538 37.547368 
L 470.506595 38.349384 
L 473.023694 38.571826 
L 478.057808 39.88672 
L 483.091964 42.083981 
L 488.12612 43.5913 
L 490.643177 43.316545 
L 493.160234 42.790282 
L 495.677333 41.229818 
L 498.19439 39.91092 
L 500.711447 38.842805 
L 503.228504 38.481112 
L 505.745603 38.655319 
L 508.26266 39.949004 
L 510.779717 41.437244 
L 513.296816 41.316438 
L 515.813873 40.707951 
L 518.33093 39.983885 
L 520.848029 39.922416 
L 523.365086 39.509799 
L 525.882143 38.275695 
L 528.399242 37.572188 
L 528.399242 37.572188 
" clip-path="url(#p1c0da09079)" style="fill: none; stroke: #2ca02c; stroke-width: 2.35; stroke-linecap: square"/>
   </g>
   <g id="line2d_25">
    <path d="M 87.912 42.581332 
L 90.42907 45.204534 
L 92.94614 44.938071 
L 95.46321 43.951738 
L 97.980279 43.329359 
L 100.497349 42.351874 
L 103.014419 42.254303 
L 105.53149 42.608912 
L 108.048558 43.143995 
L 113.082699 43.374323 
L 118.116839 42.733986 
L 120.633909 42.334767 
L 123.150979 42.724918 
L 125.668047 43.605562 
L 130.702187 44.279895 
L 133.219257 43.273009 
L 138.253397 38.61475 
L 140.770465 37.174829 
L 148.321678 37.831342 
L 150.838745 37.794851 
L 153.355818 37.032015 
L 155.872885 36.528393 
L 158.389958 35.21406 
L 160.907026 34.863865 
L 163.424093 34.168802 
L 165.941166 34.265325 
L 168.458233 33.865592 
L 170.975306 34.380222 
L 173.492374 35.19228 
L 176.009446 37.040132 
L 178.526514 38.052958 
L 181.043581 38.668368 
L 183.560649 38.597881 
L 186.077727 39.647396 
L 191.111862 41.469132 
L 193.628929 41.520433 
L 201.180142 42.013936 
L 206.214277 41.572406 
L 208.731355 40.921497 
L 211.248423 38.727509 
L 213.76549 35.60223 
L 216.282558 33.388067 
L 218.799636 33.27119 
L 223.833771 34.153814 
L 228.867916 34.939737 
L 231.384984 35.327749 
L 233.902051 35.521824 
L 236.419119 34.422573 
L 238.936186 32.931232 
L 241.453264 31.754704 
L 243.970332 32.146932 
L 246.487399 31.759099 
L 249.004467 31.056968 
L 251.521545 29.968369 
L 256.55568 29.224876 
L 259.072747 29.33611 
L 261.589815 30.647928 
L 264.106893 32.276204 
L 266.62395 33.601783 
L 271.658106 33.957422 
L 274.175163 33.748795 
L 276.692241 32.813028 
L 281.726376 30.299972 
L 284.243454 30.4018 
L 286.760511 30.202518 
L 289.277589 31.466085 
L 291.794667 31.408152 
L 294.311724 32.507997 
L 296.828802 32.662552 
L 299.345858 32.56397 
L 304.380015 30.659491 
L 306.897071 30.923499 
L 309.41415 31.33824 
L 314.448284 37.474792 
L 316.965363 42.02053 
L 319.482419 43.911386 
L 321.999497 45.049088 
L 324.516554 44.897344 
L 327.033632 44.108748 
L 332.067767 43.161973 
L 334.584845 42.992945 
L 339.61898 40.154027 
L 342.136058 38.439564 
L 347.170193 36.156657 
L 349.687271 34.679928 
L 352.204328 34.64215 
L 354.721406 35.125853 
L 357.238463 36.136798 
L 359.755541 36.477152 
L 362.272619 34.512087 
L 364.789676 33.117743 
L 367.306754 31.876787 
L 369.823832 33.109764 
L 372.340889 33.973856 
L 374.857967 35.10441 
L 377.375024 35.160759 
L 379.892102 35.744668 
L 382.40918 35.731165 
L 384.926237 36.072251 
L 392.47745 30.562909 
L 394.994528 30.569661 
L 397.511585 30.914886 
L 400.028663 30.615378 
L 402.54572 30.506698 
L 405.062798 29.879608 
L 407.579876 29.868361 
L 410.096933 29.285146 
L 412.614011 31.904942 
L 415.131089 35.040042 
L 417.648146 38.541908 
L 420.165224 39.133974 
L 422.682281 39.098117 
L 425.199359 38.799441 
L 427.716437 38.678307 
L 430.233494 39.157931 
L 432.750572 38.870323 
L 435.267629 38.787462 
L 440.301785 35.118032 
L 442.818842 33.816331 
L 445.335899 33.708681 
L 447.852998 33.99518 
L 450.370055 32.986671 
L 452.887112 32.253771 
L 455.404211 31.707897 
L 457.921268 31.302244 
L 460.438325 31.450464 
L 462.955424 33.614593 
L 465.472481 36.938481 
L 467.989538 39.39309 
L 470.506595 39.790943 
L 473.023694 39.454211 
L 475.540751 39.650801 
L 478.057808 40.154501 
L 480.574907 40.913121 
L 483.091964 41.529244 
L 488.12612 42.059376 
L 490.643177 41.205164 
L 493.160234 40.03907 
L 495.677333 38.327855 
L 498.19439 37.386882 
L 500.711447 36.631925 
L 503.228504 36.641706 
L 505.745603 36.905535 
L 510.779717 38.84399 
L 513.296816 38.805004 
L 515.813873 39.124925 
L 520.848029 39.602273 
L 523.365086 39.131202 
L 525.882143 37.952179 
L 528.399242 37.453151 
L 528.399242 37.453151 
" clip-path="url(#p1c0da09079)" style="fill: none; stroke: #1f77b4; stroke-width: 2.35; stroke-linecap: square"/>
   </g>
   <g id="patch_3">
    <path d="M 87.912 63.612 
L 87.912 10.044 
" style="fill: none; stroke: #222222; stroke-width: 0.95; stroke-linejoin: miter; stroke-linecap: square"/>
   </g>
   <g id="patch_4">
    <path d="M 530.136 63.612 
L 530.136 10.044 
" style="fill: none; stroke: #222222; stroke-width: 0.95; stroke-linejoin: miter; stroke-linecap: square"/>
   </g>
   <g id="patch_5">
    <path d="M 87.912 63.612 
L 530.136 63.612 
" style="fill: none; stroke: #222222; stroke-width: 0.95; stroke-linejoin: miter; stroke-linecap: square"/>
   </g>
   <g id="patch_6">
    <path d="M 87.912 10.044 
L 530.136 10.044 
" style="fill: none; stroke: #222222; stroke-width: 0.95; stroke-linejoin: miter; stroke-linecap: square"/>
   </g>
  </g>
 </g>
 <defs>
  <clipPath id="p1c0da09079">
   <rect x="87.912" y="10.044" width="442.224" height="53.568"/>
  </clipPath>
 </defs>
</svg>
