<?xml version="1.0" encoding="utf-8" standalone="no"?>
<!DOCTYPE svg PUBLIC "-//W3C//DTD SVG 1.1//EN"
  "http://www.w3.org/Graphics/SVG/1.1/DTD/svg11.dtd">
<svg xmlns:xlink="http://www.w3.org/1999/xlink" width="532.8pt" height="111.6pt" viewBox="0 0 532.8 111.6" xmlns="http://www.w3.org/2000/svg" version="1.1">
 <metadata>
  <rdf:RDF xmlns:dc="http://purl.org/dc/elements/1.1/" xmlns:cc="http://creativecommons.org/ns#" xmlns:rdf="http://www.w3.org/1999/02/22-rdf-syntax-ns#">
   <cc:Work>
    <dc:type rdf:resource="http://purl.org/dc/dcmitype/StillImage"/>
    <dc:date>2026-05-24T19:32:18.970326</dc:date>
    <dc:format>image/svg+xml</dc:format>
    <dc:creator>
     <cc:Agent>
      <dc:title>Matplotlib v3.5.3, https://matplotlib.org/</dc:title>
     </cc:Agent>
    </dc:creator>
   </cc:Work>
  </rdf:RDF>
 </metadata>
 <defs>
  <style type="text/css">*{stroke-linejoin: round; stroke-linecap: butt}</style>
 </defs>
 <g id="figure_1">
  <g id="patch_1">
   <path d="M 0 111.6 
L 532.8 111.6 
L 532.8 0 
L 0 0 
z
" style="fill: #ffffff"/>
  </g>
  <g id="axes_1">
   <g id="patch_2">
    <path d="M 87.912 63.612 
L 530.136 63.612 
L 530.136 10.044 
L 87.912 10.044 
z
" style="fill: #ffffff"/>
   </g>
   <g id="matplotlib.axis_1">
    <g id="xtick_1">
     <g id="line2d_1">
      <path d="M 87.912 63.612 
L 87.912 10.044 
" clip-path="url(#p1cb3a01008)" style="fill: none; stroke: #ededed; stroke-width: 0.7; stroke-linecap: square"/>
     </g>
     <g id="line2d_2">
      <defs>
       <path id="m77c0a2991f" d="M 0 0 
L 0 4 
" style="stroke: #222222; stroke-width: 0.9"/>
      </defs>
      <g>
       <use xlink:href="#m77c0a2991f" x="87.912" y="63.612" style="fill: #222222; stroke: #222222; stroke-width: 0.9"/>
      </g>
     </g>
     <g id="text_1">
      <!-- 0 -->
      <g style="fill: #222222" transform="translate(82.822 83.2695)scale(0.16 -0.16)">
       <defs>
        <path id="DejaVuSans-30" d="M 2034 4250 
Q 1547 4250 1301 3770 
Q 1056 3291 1056 2328 
Q 1056 1369 1301 889 
Q 1547 409 2034 409 
Q 2525 409 2770 889 
Q 3016 1369 3016 2328 
Q 3016 3291 2770 3770 
Q 2525 4250 2034 4250 
z
M 2034 4750 
Q 2819 4750 3233 4129 
Q 3647 3509 3647 2328 
Q 3647 1150 3233 529 
Q 2819 -91 2034 -91 
Q 1250 -91 836 529 
Q 422 1150 422 2328 
Q 422 3509 836 4129 
Q 1250 4750 2034 4750 
z
" transform="scale(0.015625)"/>
       </defs>
       <use xlink:href="#DejaVuSans-30"/>
      </g>
     </g>
    </g>
    <g id="xtick_2">
     <g id="line2d_3">
      <path d="M 176.3568 63.612 
L 176.3568 10.044 
" clip-path="url(#p1cb3a01008)" style="fill: none; stroke: #ededed; stroke-width: 0.7; stroke-linecap: square"/>
     </g>
     <g id="line2d_4">
      <g>
       <use xlink:href="#m77c0a2991f" x="176.3568" y="63.612" style="fill: #222222; stroke: #222222; stroke-width: 0.9"/>
      </g>
     </g>
     <g id="text_2">
      <!-- 1 -->
      <g style="fill: #222222" transform="translate(171.2668 83.2695)scale(0.16 -0.16)">
       <defs>
        <path id="DejaVuSans-31" d="M 794 531 
L 1825 531 
L 1825 4091 
L 703 3866 
L 703 4441 
L 1819 4666 
L 2450 4666 
L 2450 531 
L 3481 531 
L 3481 0 
L 794 0 
L 794 531 
z
" transform="scale(0.015625)"/>
       </defs>
       <use xlink:href="#DejaVuSans-31"/>
      </g>
     </g>
    </g>
    <g id="xtick_3">
     <g id="line2d_5">
      <path d="M 264.8016 63.612 
L 264.8016 10.044 
" clip-path="url(#p1cb3a01008)" style="fill: none; stroke: #ededed; stroke-width: 0.7; stroke-linecap: square"/>
     </g>
     <g id="line2d_6">
      <g>
       <use xlink:href="#m77c0a2991f" x="264.8016" y="63.612" style="fill: #222222; stroke: #222222; stroke-width: 0.9"/>
      </g>
     </g>
     <g id="text_3">
      <!-- 2 -->
      <g style="fill: #222222" transform="translate(259.7116 83.2695)scale(0.16 -0.16)">
       <defs>
        <path id="DejaVuSans-32" d="M 1228 531 
L 3431 531 
L 3431 0 
L 469 0 
L 469 531 
Q 828 903 1448 1529 
Q 2069 2156 2228 2338 
Q 2531 2678 2651 2914 
Q 2772 3150 2772 3378 
Q 2772 3750 2511 3984 
Q 2250 4219 1831 4219 
Q 1534 4219 1204 4116 
Q 875 4013 500 3803 
L 500 4441 
Q 881 4594 1212 4672 
Q 1544 4750 1819 4750 
Q 2544 4750 2975 4387 
Q 3406 4025 3406 3419 
Q 3406 3131 3298 2873 
Q 3191 2616 2906 2266 
Q 2828 2175 2409 1742 
Q 1991 1309 1228 531 
z
" transform="scale(0.015625)"/>
       </defs>
       <use xlink:href="#DejaVuSans-32"/>
      </g>
     </g>
    </g>
    <g id="xtick_4">
     <g id="line2d_7">
      <path d="M 353.2464 63.612 
L 353.2464 10.044 
" clip-path="url(#p1cb3a01008)" style="fill: none; stroke: #ededed; stroke-width: 0.7; stroke-linecap: square"/>
     </g>
     <g id="line2d_8">
      <g>
       <use xlink:href="#m77c0a2991f" x="353.2464" y="63.612" style="fill: #222222; stroke: #222222; stroke-width: 0.9"/>
      </g>
     </g>
     <g id="text_4">
      <!-- 3 -->
      <g style="fill: #222222" transform="translate(348.1564 83.2695)scale(0.16 -0.16)">
       <defs>
        <path id="DejaVuSans-33" d="M 2597 2516 
Q 3050 2419 3304 2112 
Q 3559 1806 3559 1356 
Q 3559 666 3084 287 
Q 2609 -91 1734 -91 
Q 1441 -91 1130 -33 
Q 819 25 488 141 
L 488 750 
Q 750 597 1062 519 
Q 1375 441 1716 441 
Q 2309 441 2620 675 
Q 2931 909 2931 1356 
Q 2931 1769 2642 2001 
Q 2353 2234 1838 2234 
L 1294 2234 
L 1294 2753 
L 1863 2753 
Q 2328 2753 2575 2939 
Q 2822 3125 2822 3475 
Q 2822 3834 2567 4026 
Q 2313 4219 1838 4219 
Q 1578 4219 1281 4162 
Q 984 4106 628 3988 
L 628 4550 
Q 988 4650 1302 4700 
Q 1616 4750 1894 4750 
Q 2613 4750 3031 4423 
Q 3450 4097 3450 3541 
Q 3450 3153 3228 2886 
Q 3006 2619 2597 2516 
z
" transform="scale(0.015625)"/>
       </defs>
       <use xlink:href="#DejaVuSans-33"/>
      </g>
     </g>
    </g>
    <g id="xtick_5">
     <g id="line2d_9">
      <path d="M 441.6912 63.612 
L 441.6912 10.044 
" clip-path="url(#p1cb3a01008)" style="fill: none; stroke: #ededed; stroke-width: 0.7; stroke-linecap: square"/>
     </g>
     <g id="line2d_10">
      <g>
       <use xlink:href="#m77c0a2991f" x="441.6912" y="63.612" style="fill: #222222; stroke: #222222; stroke-width: 0.9"/>
      </g>
     </g>
     <g id="text_5">
      <!-- 4 -->
      <g style="fill: #222222" transform="translate(436.6012 83.2695)scale(0.16 -0.16)">
       <defs>
        <path id="DejaVuSans-34" d="M 2419 4116 
L 825 1625 
L 2419 1625 
L 2419 4116 
z
M 2253 4666 
L 3047 4666 
L 3047 1625 
L 3713 1625 
L 3713 1100 
L 3047 1100 
L 3047 0 
L 2419 0 
L 2419 1100 
L 313 1100 
L 313 1709 
L 2253 4666 
z
" transform="scale(0.015625)"/>
       </defs>
       <use xlink:href="#DejaVuSans-34"/>
      </g>
     </g>
    </g>
    <g id="xtick_6">
     <g id="line2d_11">
      <path d="M 530.136 63.612 
L 530.136 10.044 
" clip-path="url(#p1cb3a01008)" style="fill: none; stroke: #ededed; stroke-width: 0.7; stroke-linecap: square"/>
     </g>
     <g id="line2d_12">
      <g>
       <use xlink:href="#m77c0a2991f" x="530.136" y="63.612" style="fill: #222222; stroke: #222222; stroke-width: 0.9"/>
      </g>
     </g>
     <g id="text_6">
      <!-- 5 -->
      <g style="fill: #222222" transform="translate(525.046 83.2695)scale(0.16 -0.16)">
       <defs>
        <path id="DejaVuSans-35" d="M 691 4666 
L 3169 4666 
L 3169 4134 
L 1269 4134 
L 1269 2991 
Q 1406 3038 1543 3061 
Q 1681 3084 1819 3084 
Q 2600 3084 3056 2656 
Q 3513 2228 3513 1497 
Q 3513 744 3044 326 
Q 2575 -91 1722 -91 
Q 1428 -91 1123 -41 
Q 819 9 494 109 
L 494 744 
Q 775 591 1075 516 
Q 1375 441 1709 441 
Q 2250 441 2565 725 
Q 2881 1009 2881 1497 
Q 2881 1984 2565 2268 
Q 2250 2553 1709 2553 
Q 1456 2553 1204 2497 
Q 953 2441 691 2322 
L 691 4666 
z
" transform="scale(0.015625)"/>
       </defs>
       <use xlink:href="#DejaVuSans-35"/>
      </g>
     </g>
    </g>
    <g id="text_7">
     <!-- Time (s) -->
     <g transform="translate(268.366188 102.793875)scale(0.2 -0.2)">
      <defs>
       <path id="DejaVuSans-54" d="M -19 4666 
L 3928 4666 
L 3928 4134 
L 2272 4134 
L 2272 0 
L 1638 0 
L 1638 4134 
L -19 4134 
L -19 4666 
z
" transform="scale(0.015625)"/>
       <path id="DejaVuSans-69" d="M 603 3500 
L 1178 3500 
L 1178 0 
L 603 0 
L 603 3500 
z
M 603 4863 
L 1178 4863 
L 1178 4134 
L 603 4134 
L 603 4863 
z
" transform="scale(0.015625)"/>
       <path id="DejaVuSans-6d" d="M 3328 2828 
Q 3544 3216 3844 3400 
Q 4144 3584 4550 3584 
Q 5097 3584 5394 3201 
Q 5691 2819 5691 2113 
L 5691 0 
L 5113 0 
L 5113 2094 
Q 5113 2597 4934 2840 
Q 4756 3084 4391 3084 
Q 3944 3084 3684 2787 
Q 3425 2491 3425 1978 
L 3425 0 
L 2847 0 
L 2847 2094 
Q 2847 2600 2669 2842 
Q 2491 3084 2119 3084 
Q 1678 3084 1418 2786 
Q 1159 2488 1159 1978 
L 1159 0 
L 581 0 
L 581 3500 
L 1159 3500 
L 1159 2956 
Q 1356 3278 1631 3431 
Q 1906 3584 2284 3584 
Q 2666 3584 2933 3390 
Q 3200 3197 3328 2828 
z
" transform="scale(0.015625)"/>
       <path id="DejaVuSans-65" d="M 3597 1894 
L 3597 1613 
L 953 1613 
Q 991 1019 1311 708 
Q 1631 397 2203 397 
Q 2534 397 2845 478 
Q 3156 559 3463 722 
L 3463 178 
Q 3153 47 2828 -22 
Q 2503 -91 2169 -91 
Q 1331 -91 842 396 
Q 353 884 353 1716 
Q 353 2575 817 3079 
Q 1281 3584 2069 3584 
Q 2775 3584 3186 3129 
Q 3597 2675 3597 1894 
z
M 3022 2063 
Q 3016 2534 2758 2815 
Q 2500 3097 2075 3097 
Q 1594 3097 1305 2825 
Q 1016 2553 972 2059 
L 3022 2063 
z
" transform="scale(0.015625)"/>
       <path id="DejaVuSans-20" transform="scale(0.015625)"/>
       <path id="DejaVuSans-28" d="M 1984 4856 
Q 1566 4138 1362 3434 
Q 1159 2731 1159 2009 
Q 1159 1288 1364 580 
Q 1569 -128 1984 -844 
L 1484 -844 
Q 1016 -109 783 600 
Q 550 1309 550 2009 
Q 550 2706 781 3412 
Q 1013 4119 1484 4856 
L 1984 4856 
z
" transform="scale(0.015625)"/>
       <path id="DejaVuSans-73" d="M 2834 3397 
L 2834 2853 
Q 2591 2978 2328 3040 
Q 2066 3103 1784 3103 
Q 1356 3103 1142 2972 
Q 928 2841 928 2578 
Q 928 2378 1081 2264 
Q 1234 2150 1697 2047 
L 1894 2003 
Q 2506 1872 2764 1633 
Q 3022 1394 3022 966 
Q 3022 478 2636 193 
Q 2250 -91 1575 -91 
Q 1294 -91 989 -36 
Q 684 19 347 128 
L 347 722 
Q 666 556 975 473 
Q 1284 391 1588 391 
Q 1994 391 2212 530 
Q 2431 669 2431 922 
Q 2431 1156 2273 1281 
Q 2116 1406 1581 1522 
L 1381 1569 
Q 847 1681 609 1914 
Q 372 2147 372 2553 
Q 372 3047 722 3315 
Q 1072 3584 1716 3584 
Q 2034 3584 2315 3537 
Q 2597 3491 2834 3397 
z
" transform="scale(0.015625)"/>
       <path id="DejaVuSans-29" d="M 513 4856 
L 1013 4856 
Q 1481 4119 1714 3412 
Q 1947 2706 1947 2009 
Q 1947 1309 1714 600 
Q 1481 -109 1013 -844 
L 513 -844 
Q 928 -128 1133 580 
Q 1338 1288 1338 2009 
Q 1338 2731 1133 3434 
Q 928 4138 513 4856 
z
" transform="scale(0.015625)"/>
      </defs>
      <use xlink:href="#DejaVuSans-54"/>
      <use xlink:href="#DejaVuSans-69" x="57.958984"/>
      <use xlink:href="#DejaVuSans-6d" x="85.742188"/>
      <use xlink:href="#DejaVuSans-65" x="183.154297"/>
      <use xlink:href="#DejaVuSans-20" x="244.677734"/>
      <use xlink:href="#DejaVuSans-28" x="276.464844"/>
      <use xlink:href="#DejaVuSans-73" x="315.478516"/>
      <use xlink:href="#DejaVuSans-29" x="367.578125"/>
     </g>
    </g>
   </g>
   <g id="matplotlib.axis_2">
    <g id="ytick_1">
     <g id="line2d_13">
      <path d="M 87.912 63.612 
L 530.136 63.612 
" clip-path="url(#p1cb3a01008)" style="fill: none; stroke: #ededed; stroke-width: 0.7; stroke-linecap: square"/>
     </g>
     <g id="line2d_14">
      <defs>
       <path id="m02d426bc71" d="M 0 0 
L -4 0 
" style="stroke: #222222; stroke-width: 0.9"/>
      </defs>
      <g>
       <use xlink:href="#m02d426bc71" x="87.912" y="63.612" style="fill: #222222; stroke: #222222; stroke-width: 0.9"/>
      </g>
     </g>
     <g id="text_8">
      <!-- −0.04 -->
      <g style="fill: #222222" transform="translate(31.3795 69.69075)scale(0.16 -0.16)">
       <defs>
        <path id="DejaVuSans-2212" d="M 678 2272 
L 4684 2272 
L 4684 1741 
L 678 1741 
L 678 2272 
z
" transform="scale(0.015625)"/>
        <path id="DejaVuSans-2e" d="M 684 794 
L 1344 794 
L 1344 0 
L 684 0 
L 684 794 
z
" transform="scale(0.015625)"/>
       </defs>
       <use xlink:href="#DejaVuSans-2212"/>
       <use xlink:href="#DejaVuSans-30" x="83.789062"/>
       <use xlink:href="#DejaVuSans-2e" x="147.412109"/>
       <use xlink:href="#DejaVuSans-30" x="179.199219"/>
       <use xlink:href="#DejaVuSans-34" x="242.822266"/>
      </g>
     </g>
    </g>
    <g id="ytick_2">
     <g id="line2d_15">
      <path d="M 87.912 50.22 
L 530.136 50.22 
" clip-path="url(#p1cb3a01008)" style="fill: none; stroke: #ededed; stroke-width: 0.7; stroke-linecap: square"/>
     </g>
     <g id="line2d_16">
      <g>
       <use xlink:href="#m02d426bc71" x="87.912" y="50.22" style="fill: #222222; stroke: #222222; stroke-width: 0.9"/>
      </g>
     </g>
     <g id="text_9">
      <!-- −0.02 -->
      <g style="fill: #222222" transform="translate(31.3795 56.29875)scale(0.16 -0.16)">
       <use xlink:href="#DejaVuSans-2212"/>
       <use xlink:href="#DejaVuSans-30" x="83.789062"/>
       <use xlink:href="#DejaVuSans-2e" x="147.412109"/>
       <use xlink:href="#DejaVuSans-30" x="179.199219"/>
       <use xlink:href="#DejaVuSans-32" x="242.822266"/>
      </g>
     </g>
    </g>
    <g id="ytick_3">
     <g id="line2d_17">
      <path d="M 87.912 36.828 
L 530.136 36.828 
" clip-path="url(#p1cb3a01008)" style="fill: none; stroke: #ededed; stroke-width: 0.7; stroke-linecap: square"/>
     </g>
     <g id="line2d_18">
      <g>
       <use xlink:href="#m02d426bc71" x="87.912" y="36.828" style="fill: #222222; stroke: #222222; stroke-width: 0.9"/>
      </g>
     </g>
     <g id="text_10">
      <!-- 0.00 -->
      <g style="fill: #222222" transform="translate(44.787 42.90675)scale(0.16 -0.16)">
       <use xlink:href="#DejaVuSans-30"/>
       <use xlink:href="#DejaVuSans-2e" x="63.623047"/>
       <use xlink:href="#DejaVuSans-30" x="95.410156"/>
       <use xlink:href="#DejaVuSans-30" x="159.033203"/>
      </g>
     </g>
    </g>
    <g id="ytick_4">
     <g id="line2d_19">
      <path d="M 87.912 23.436 
L 530.136 23.436 
" clip-path="url(#p1cb3a01008)" style="fill: none; stroke: #ededed; stroke-width: 0.7; stroke-linecap: square"/>
     </g>
     <g id="line2d_20">
      <g>
       <use xlink:href="#m02d426bc71" x="87.912" y="23.436" style="fill: #222222; stroke: #222222; stroke-width: 0.9"/>
      </g>
     </g>
     <g id="text_11">
      <!-- 0.02 -->
      <g style="fill: #222222" transform="translate(44.787 29.51475)scale(0.16 -0.16)">
       <use xlink:href="#DejaVuSans-30"/>
       <use xlink:href="#DejaVuSans-2e" x="63.623047"/>
       <use xlink:href="#DejaVuSans-30" x="95.410156"/>
       <use xlink:href="#DejaVuSans-32" x="159.033203"/>
      </g>
     </g>
    </g>
    <g id="ytick_5">
     <g id="line2d_21">
      <path d="M 87.912 10.044 
L 530.136 10.044 
" clip-path="url(#p1cb3a01008)" style="fill: none; stroke: #ededed; stroke-width: 0.7; stroke-linecap: square"/>
     </g>
     <g id="line2d_22">
      <g>
       <use xlink:href="#m02d426bc71" x="87.912" y="10.044" style="fill: #222222; stroke: #222222; stroke-width: 0.9"/>
      </g>
     </g>
     <g id="text_12">
      <!-- 0.04 -->
      <g style="fill: #222222" transform="translate(44.787 16.12275)scale(0.16 -0.16)">
       <use xlink:href="#DejaVuSans-30"/>
       <use xlink:href="#DejaVuSans-2e" x="63.623047"/>
       <use xlink:href="#DejaVuSans-30" x="95.410156"/>
       <use xlink:href="#DejaVuSans-34" x="159.033203"/>
      </g>
     </g>
    </g>
    <g id="text_13">
     <!-- $\Delta I/I$ -->
     <g transform="translate(24.012156 53.838)rotate(-90)scale(0.21 -0.21)">
      <defs>
       <path id="DejaVuSans-394" d="M 2188 4044 
L 906 525 
L 3472 525 
L 2188 4044 
z
M 50 0 
L 1831 4666 
L 2547 4666 
L 4325 0 
L 50 0 
z
" transform="scale(0.015625)"/>
       <path id="DejaVuSans-Oblique-49" d="M 1081 4666 
L 1716 4666 
L 806 0 
L 172 0 
L 1081 4666 
z
" transform="scale(0.015625)"/>
       <path id="DejaVuSans-2f" d="M 1625 4666 
L 2156 4666 
L 531 -594 
L 0 -594 
L 1625 4666 
z
" transform="scale(0.015625)"/>
      </defs>
      <use xlink:href="#DejaVuSans-394" transform="translate(0 0.09375)"/>
      <use xlink:href="#DejaVuSans-Oblique-49" transform="translate(68.408203 0.09375)"/>
      <use xlink:href="#DejaVuSans-2f" transform="translate(97.900391 0.09375)"/>
      <use xlink:href="#DejaVuSans-Oblique-49" transform="translate(131.591797 0.09375)"/>
     </g>
    </g>
   </g>
   <g id="line2d_23">
    <path d="M 87.912 31.769131 
L 90.42907 29.426261 
L 95.46321 30.150036 
L 97.980279 30.381933 
L 100.497349 30.391467 
L 108.048558 30.028522 
L 113.082699 30.209444 
L 115.599769 30.420068 
L 118.116839 30.948869 
L 120.633909 31.732321 
L 123.150979 32.643561 
L 125.668047 33.158127 
L 128.185117 33.397354 
L 130.702187 33.457819 
L 133.219257 33.994916 
L 138.253397 36.494422 
L 140.770465 37.44762 
L 143.287537 37.351336 
L 145.804605 36.944117 
L 148.321678 36.35103 
L 150.838745 36.117222 
L 153.355818 36.39798 
L 155.872885 37.063112 
L 158.389958 37.968011 
L 163.424093 40.536841 
L 165.941166 41.363938 
L 168.458233 41.333245 
L 173.492374 40.804962 
L 178.526514 40.673555 
L 181.043581 40.962566 
L 183.560649 41.408056 
L 186.077727 41.043717 
L 188.594794 40.527779 
L 191.111862 39.66367 
L 193.628929 39.497297 
L 198.663075 38.880172 
L 201.180142 38.82488 
L 203.69721 39.062555 
L 208.731355 40.181834 
L 211.248423 41.293265 
L 216.282558 43.007453 
L 218.799636 43.131665 
L 221.316703 43.007205 
L 223.833771 42.596703 
L 228.867916 41.371831 
L 231.384984 40.915593 
L 233.902051 40.699346 
L 236.419119 41.324723 
L 238.936186 42.26859 
L 241.453264 43.332598 
L 243.970332 43.7393 
L 249.004467 44.337581 
L 254.038612 45.54804 
L 256.55568 45.942443 
L 259.072747 45.86273 
L 261.589815 44.861569 
L 264.106893 43.653629 
L 266.62395 42.67248 
L 269.141028 42.596928 
L 276.692241 43.599348 
L 281.726376 44.522348 
L 284.243454 44.896377 
L 286.760511 43.666851 
L 289.277589 42.28831 
L 291.794667 40.623232 
L 294.311724 40.188018 
L 296.828802 39.884571 
L 299.345858 40.50581 
L 301.862937 41.540497 
L 304.380015 43.034323 
L 306.897071 44.018822 
L 309.41415 44.375358 
L 311.931206 42.862846 
L 316.965363 39.370859 
L 319.482419 38.843205 
L 321.999497 38.552553 
L 324.516554 38.480981 
L 329.55071 38.842374 
L 334.584845 39.58823 
L 337.101923 40.320752 
L 342.136058 41.154145 
L 344.653115 41.100606 
L 349.687271 41.438276 
L 352.204328 41.429102 
L 354.721406 41.11864 
L 357.238463 40.56225 
L 359.755541 39.87371 
L 367.306754 40.640793 
L 369.823832 39.573029 
L 372.340889 38.284972 
L 374.857967 36.587334 
L 377.375024 35.258172 
L 379.892102 34.46984 
L 382.40918 34.509708 
L 384.926237 34.917601 
L 389.960372 36.745769 
L 392.47745 37.571248 
L 400.028663 38.43086 
L 402.54572 38.544076 
L 405.062798 38.464903 
L 410.096933 37.667622 
L 412.614011 35.836891 
L 415.131089 34.212669 
L 417.648146 32.283247 
L 422.682281 30.747035 
L 425.199359 30.439024 
L 427.716437 30.594739 
L 430.233494 31.077263 
L 432.750572 31.257937 
L 435.267629 31.14589 
L 437.784707 30.857351 
L 440.301785 30.450694 
L 445.335899 30.186733 
L 447.852998 30.540053 
L 452.887112 31.754155 
L 455.404211 32.499269 
L 457.921268 33.015972 
L 460.438325 32.298808 
L 465.472481 27.788796 
L 467.989538 27.096299 
L 473.023694 28.763602 
L 475.540751 29.284173 
L 478.057808 29.600886 
L 483.091964 29.79305 
L 485.609021 29.744616 
L 490.643177 30.396076 
L 500.711447 33.17724 
L 503.228504 33.303589 
L 505.745603 32.960274 
L 510.779717 31.227266 
L 513.296816 30.491686 
L 520.848029 28.741341 
L 523.365086 28.411091 
L 525.882143 28.613712 
L 528.399242 31.480929 
L 528.399242 31.480929 
" clip-path="url(#p1cb3a01008)" style="fill: none; stroke: #d62728; stroke-width: 2.35; stroke-linecap: square"/>
   </g>
   <g id="line2d_24">
    <path d="M 87.912 34.446804 
L 90.42907 33.439113 
L 95.46321 34.052027 
L 97.980279 34.09613 
L 100.497349 33.998701 
L 105.53149 33.287824 
L 110.565628 32.389376 
L 113.082699 32.107135 
L 115.599769 32.046751 
L 118.116839 32.452611 
L 120.633909 33.477407 
L 123.150979 34.905915 
L 125.668047 36.129167 
L 128.185117 36.796886 
L 130.702187 37.190047 
L 133.219257 37.815614 
L 135.736324 38.850716 
L 138.253397 39.740276 
L 140.770465 40.156991 
L 143.287537 39.997866 
L 150.838745 38.648754 
L 153.355818 38.617273 
L 155.872885 38.993132 
L 158.389958 39.595527 
L 160.907026 40.378756 
L 163.424093 40.808124 
L 165.941166 40.89979 
L 168.458233 40.529465 
L 173.492374 39.183279 
L 176.009446 39.060438 
L 178.526514 39.753509 
L 183.560649 41.696464 
L 186.077727 41.568515 
L 188.594794 41.237552 
L 191.111862 40.591801 
L 198.663075 39.758326 
L 203.69721 40.259664 
L 206.214277 40.723515 
L 208.731355 41.001731 
L 213.76549 41.719422 
L 216.282558 41.774989 
L 218.799636 41.480492 
L 221.316703 40.821737 
L 223.833771 39.999162 
L 226.350838 38.96932 
L 228.867916 37.7384 
L 231.384984 36.832878 
L 233.902051 36.10165 
L 236.419119 37.350909 
L 238.936186 39.111706 
L 241.453264 41.578988 
L 243.970332 42.875903 
L 246.487399 43.952074 
L 251.521545 45.666404 
L 254.038612 46.462361 
L 256.55568 46.763826 
L 259.072747 46.684051 
L 264.106893 44.866392 
L 266.62395 43.989759 
L 271.658106 43.788193 
L 274.175163 43.940915 
L 281.726376 44.78317 
L 284.243454 44.493597 
L 286.760511 42.733288 
L 291.794667 38.647565 
L 294.311724 37.775841 
L 296.828802 37.209835 
L 299.345858 37.603652 
L 301.862937 38.937977 
L 304.380015 41.126403 
L 306.897071 42.963667 
L 309.41415 43.648978 
L 311.931206 41.951386 
L 314.448284 39.767945 
L 316.965363 37.77924 
L 319.482419 37.096475 
L 321.999497 36.601113 
L 324.516554 36.439259 
L 329.55071 37.020145 
L 332.067767 37.396354 
L 334.584845 37.574717 
L 337.101923 38.161319 
L 342.136058 38.593141 
L 344.653115 38.209553 
L 349.687271 37.797092 
L 352.204328 37.389951 
L 357.238463 35.839181 
L 359.755541 35.321958 
L 364.789676 37.933166 
L 367.306754 38.911893 
L 369.823832 37.939996 
L 372.340889 36.397108 
L 377.375024 32.686587 
L 379.892102 31.588495 
L 382.40918 31.448335 
L 384.926237 31.921074 
L 387.443315 33.914443 
L 389.960372 35.763766 
L 392.47745 37.35097 
L 394.994528 37.399342 
L 402.54572 36.86317 
L 405.062798 36.487479 
L 410.096933 35.20247 
L 412.614011 33.910541 
L 417.648146 32.372104 
L 420.165224 32.287587 
L 422.682281 31.808278 
L 425.199359 31.818629 
L 427.716437 32.19435 
L 430.233494 32.760478 
L 432.750572 32.962563 
L 435.267629 32.775601 
L 437.784707 32.313412 
L 442.818842 31.134796 
L 445.335899 30.891856 
L 447.852998 31.016345 
L 457.921268 32.880988 
L 460.438325 31.669718 
L 465.472481 25.120035 
L 467.989538 23.900365 
L 470.506595 25.20219 
L 475.540751 28.605407 
L 478.057808 29.753548 
L 480.574907 30.460187 
L 485.609021 31.082157 
L 490.643177 33.448946 
L 493.160234 34.872437 
L 495.677333 35.490855 
L 498.19439 36.454093 
L 500.711447 37.053104 
L 503.228504 37.274091 
L 505.745603 36.637746 
L 508.26266 35.609901 
L 513.296816 32.921539 
L 515.813873 31.6801 
L 520.848029 29.75835 
L 523.365086 29.108574 
L 525.882143 28.839351 
L 528.399242 31.459372 
L 528.399242 31.459372 
" clip-path="url(#p1cb3a01008)" style="fill: none; stroke: #2ca02c; stroke-width: 2.35; stroke-linecap: square"/>
   </g>
   <g id="line2d_25">
    <path d="M 87.912 34.064628 
L 90.42907 33.11443 
L 95.46321 34.718764 
L 97.980279 34.880065 
L 100.497349 34.749853 
L 103.014419 34.405492 
L 105.53149 34.39791 
L 108.048558 34.166616 
L 113.082699 33.988127 
L 115.599769 34.134453 
L 118.116839 34.60338 
L 120.633909 35.275419 
L 123.150979 35.755952 
L 125.668047 36.453688 
L 128.185117 36.854013 
L 130.702187 37.41328 
L 133.219257 37.532244 
L 135.736324 38.132816 
L 138.253397 38.853089 
L 140.770465 39.821359 
L 143.287537 40.274826 
L 145.804605 40.124394 
L 150.838745 39.021615 
L 153.355818 39.187276 
L 155.872885 39.773146 
L 160.907026 42.101754 
L 163.424093 43.384454 
L 165.941166 43.868779 
L 170.975306 43.230926 
L 181.043581 42.821396 
L 183.560649 43.124641 
L 186.077727 43.054269 
L 188.594794 42.82485 
L 191.111862 42.332542 
L 193.628929 42.129895 
L 196.146007 41.300662 
L 198.663075 41.017132 
L 201.180142 40.94716 
L 203.69721 41.270457 
L 208.731355 42.723305 
L 211.248423 43.980203 
L 213.76549 44.712672 
L 216.282558 45.162053 
L 218.799636 45.216395 
L 221.316703 45.08077 
L 223.833771 44.490288 
L 226.350838 43.42498 
L 228.867916 41.812116 
L 231.384984 40.776149 
L 233.902051 40.151018 
L 236.419119 41.587078 
L 238.936186 43.220289 
L 241.453264 45.21212 
L 254.038612 47.620283 
L 256.55568 48.33527 
L 259.072747 48.454402 
L 261.589815 47.79953 
L 266.62395 45.184843 
L 269.141028 44.544609 
L 271.658106 44.446666 
L 274.175163 44.802716 
L 284.243454 45.584283 
L 286.760511 44.770511 
L 291.794667 41.589584 
L 294.311724 40.472735 
L 296.828802 40.012739 
L 299.345858 40.159654 
L 301.862937 40.577124 
L 306.897071 43.573685 
L 309.41415 44.356136 
L 311.931206 42.390613 
L 314.448284 40.083826 
L 316.965363 38.217258 
L 321.999497 37.859544 
L 324.516554 38.043782 
L 327.033632 38.450574 
L 332.067767 38.867054 
L 334.584845 39.406838 
L 337.101923 40.738551 
L 339.61898 41.916547 
L 344.653115 42.622392 
L 347.170193 42.304318 
L 349.687271 42.599749 
L 352.204328 42.472823 
L 354.721406 42.189145 
L 357.238463 41.053403 
L 359.755541 39.499916 
L 362.272619 39.566012 
L 364.789676 40.151818 
L 367.306754 40.424143 
L 369.823832 38.914088 
L 377.375024 32.458421 
L 379.892102 31.239184 
L 382.40918 31.126307 
L 384.926237 31.904314 
L 387.443315 33.730926 
L 389.960372 35.289152 
L 392.47745 36.527177 
L 397.511585 36.552158 
L 402.54572 35.578432 
L 405.062798 34.746483 
L 407.579876 34.165858 
L 410.096933 33.755907 
L 412.614011 32.200609 
L 415.131089 30.295136 
L 417.648146 28.219221 
L 420.165224 27.033075 
L 422.682281 26.375822 
L 425.199359 25.905757 
L 435.267629 27.537199 
L 437.784707 27.562307 
L 440.301785 27.36901 
L 442.818842 26.933235 
L 445.335899 26.946379 
L 450.370055 28.222487 
L 452.887112 29.253188 
L 455.404211 29.799416 
L 457.921268 30.49751 
L 460.438325 29.394521 
L 462.955424 26.51389 
L 465.472481 23.914137 
L 467.989538 22.846197 
L 470.506595 23.892443 
L 475.540751 25.507287 
L 478.057808 25.88044 
L 480.574907 25.691778 
L 485.609021 25.914162 
L 488.12612 26.71734 
L 493.160234 27.957492 
L 495.677333 28.887385 
L 498.19439 29.521468 
L 500.711447 30.499511 
L 505.745603 30.629661 
L 510.779717 29.171568 
L 513.296816 27.97272 
L 518.33093 25.953571 
L 520.848029 25.318246 
L 523.365086 24.931422 
L 525.882143 24.949851 
L 528.399242 29.01568 
L 528.399242 29.01568 
" clip-path="url(#p1cb3a01008)" style="fill: none; stroke: #1f77b4; stroke-width: 2.35; stroke-linecap: square"/>
   </g>
   <g id="patch_3">
    <path d="M 87.912 63.612 
L 87.912 10.044 
" style="fill: none; stroke: #222222; stroke-width: 0.95; stroke-linejoin: miter; stroke-linecap: square"/>
   </g>
   <g id="patch_4">
    <path d="M 530.136 63.612 
L 530.136 10.044 
" style="fill: none; stroke: #222222; stroke-width: 0.95; stroke-linejoin: miter; stroke-linecap: square"/>
   </g>
   <g id="patch_5">
    <path d="M 87.912 63.612 
L 530.136 63.612 
" style="fill: none; stroke: #222222; stroke-width: 0.95; stroke-linejoin: miter; stroke-linecap: square"/>
   </g>
   <g id="patch_6">
    <path d="M 87.912 10.044 
L 530.136 10.044 
" style="fill: none; stroke: #222222; stroke-width: 0.95; stroke-linejoin: miter; stroke-linecap: square"/>
   </g>
  </g>
 </g>
 <defs>
  <clipPath id="p1cb3a01008">
   <rect x="87.912" y="10.044" width="442.224" height="53.568"/>
  </clipPath>
 </defs>
</svg>
