<?xml version="1.0" encoding="utf-8" standalone="no"?>
<!DOCTYPE svg PUBLIC "-//W3C//DTD SVG 1.1//EN"
  "http://www.w3.org/Graphics/SVG/1.1/DTD/svg11.dtd">
<svg xmlns:xlink="http://www.w3.org/1999/xlink" width="532.8pt" height="111.6pt" viewBox="0 0 532.8 111.6" xmlns="http://www.w3.org/2000/svg" version="1.1">
 <metadata>
  <rdf:RDF xmlns:dc="http://purl.org/dc/elements/1.1/" xmlns:cc="http://creativecommons.org/ns#" xmlns:rdf="http://www.w3.org/1999/02/22-rdf-syntax-ns#">
   <cc:Work>
    <dc:type rdf:resource="http://purl.org/dc/dcmitype/StillImage"/>
    <dc:date>2026-05-24T19:32:19.138197</dc:date>
    <dc:format>image/svg+xml</dc:format>
    <dc:creator>
     <cc:Agent>
      <dc:title>Matplotlib v3.5.3, https://matplotlib.org/</dc:title>
     </cc:Agent>
    </dc:creator>
   </cc:Work>
  </rdf:RDF>
 </metadata>
 <defs>
  <style type="text/css">*{stroke-linejoin: round; stroke-linecap: butt}</style>
 </defs>
 <g id="figure_1">
  <g id="patch_1">
   <path d="M 0 111.6 
L 532.8 111.6 
L 532.8 0 
L 0 0 
z
" style="fill: #ffffff"/>
  </g>
  <g id="axes_1">
   <g id="patch_2">
    <path d="M 87.912 63.612 
L 530.136 63.612 
L 530.136 10.044 
L 87.912 10.044 
z
" style="fill: #ffffff"/>
   </g>
   <g id="matplotlib.axis_1">
    <g id="xtick_1">
     <g id="line2d_1">
      <path d="M 87.912 63.612 
L 87.912 10.044 
" clip-path="url(#pfdd7863b9c)" style="fill: none; stroke: #ededed; stroke-width: 0.7; stroke-linecap: square"/>
     </g>
     <g id="line2d_2">
      <defs>
       <path id="m0232b61df3" d="M 0 0 
L 0 4 
" style="stroke: #222222; stroke-width: 0.9"/>
      </defs>
      <g>
       <use xlink:href="#m0232b61df3" x="87.912" y="63.612" style="fill: #222222; stroke: #222222; stroke-width: 0.9"/>
      </g>
     </g>
     <g id="text_1">
      <!-- 0 -->
      <g style="fill: #222222" transform="translate(82.822 83.2695)scale(0.16 -0.16)">
       <defs>
        <path id="DejaVuSans-30" d="M 2034 4250 
Q 1547 4250 1301 3770 
Q 1056 3291 1056 2328 
Q 1056 1369 1301 889 
Q 1547 409 2034 409 
Q 2525 409 2770 889 
Q 3016 1369 3016 2328 
Q 3016 3291 2770 3770 
Q 2525 4250 2034 4250 
z
M 2034 4750 
Q 2819 4750 3233 4129 
Q 3647 3509 3647 2328 
Q 3647 1150 3233 529 
Q 2819 -91 2034 -91 
Q 1250 -91 836 529 
Q 422 1150 422 2328 
Q 422 3509 836 4129 
Q 1250 4750 2034 4750 
z
" transform="scale(0.015625)"/>
       </defs>
       <use xlink:href="#DejaVuSans-30"/>
      </g>
     </g>
    </g>
    <g id="xtick_2">
     <g id="line2d_3">
      <path d="M 176.3568 63.612 
L 176.3568 10.044 
" clip-path="url(#pfdd7863b9c)" style="fill: none; stroke: #ededed; stroke-width: 0.7; stroke-linecap: square"/>
     </g>
     <g id="line2d_4">
      <g>
       <use xlink:href="#m0232b61df3" x="176.3568" y="63.612" style="fill: #222222; stroke: #222222; stroke-width: 0.9"/>
      </g>
     </g>
     <g id="text_2">
      <!-- 1 -->
      <g style="fill: #222222" transform="translate(171.2668 83.2695)scale(0.16 -0.16)">
       <defs>
        <path id="DejaVuSans-31" d="M 794 531 
L 1825 531 
L 1825 4091 
L 703 3866 
L 703 4441 
L 1819 4666 
L 2450 4666 
L 2450 531 
L 3481 531 
L 3481 0 
L 794 0 
L 794 531 
z
" transform="scale(0.015625)"/>
       </defs>
       <use xlink:href="#DejaVuSans-31"/>
      </g>
     </g>
    </g>
    <g id="xtick_3">
     <g id="line2d_5">
      <path d="M 264.8016 63.612 
L 264.8016 10.044 
" clip-path="url(#pfdd7863b9c)" style="fill: none; stroke: #ededed; stroke-width: 0.7; stroke-linecap: square"/>
     </g>
     <g id="line2d_6">
      <g>
       <use xlink:href="#m0232b61df3" x="264.8016" y="63.612" style="fill: #222222; stroke: #222222; stroke-width: 0.9"/>
      </g>
     </g>
     <g id="text_3">
      <!-- 2 -->
      <g style="fill: #222222" transform="translate(259.7116 83.2695)scale(0.16 -0.16)">
       <defs>
        <path id="DejaVuSans-32" d="M 1228 531 
L 3431 531 
L 3431 0 
L 469 0 
L 469 531 
Q 828 903 1448 1529 
Q 2069 2156 2228 2338 
Q 2531 2678 2651 2914 
Q 2772 3150 2772 3378 
Q 2772 3750 2511 3984 
Q 2250 4219 1831 4219 
Q 1534 4219 1204 4116 
Q 875 4013 500 3803 
L 500 4441 
Q 881 4594 1212 4672 
Q 1544 4750 1819 4750 
Q 2544 4750 2975 4387 
Q 3406 4025 3406 3419 
Q 3406 3131 3298 2873 
Q 3191 2616 2906 2266 
Q 2828 2175 2409 1742 
Q 1991 1309 1228 531 
z
" transform="scale(0.015625)"/>
       </defs>
       <use xlink:href="#DejaVuSans-32"/>
      </g>
     </g>
    </g>
    <g id="xtick_4">
     <g id="line2d_7">
      <path d="M 353.2464 63.612 
L 353.2464 10.044 
" clip-path="url(#pfdd7863b9c)" style="fill: none; stroke: #ededed; stroke-width: 0.7; stroke-linecap: square"/>
     </g>
     <g id="line2d_8">
      <g>
       <use xlink:href="#m0232b61df3" x="353.2464" y="63.612" style="fill: #222222; stroke: #222222; stroke-width: 0.9"/>
      </g>
     </g>
     <g id="text_4">
      <!-- 3 -->
      <g style="fill: #222222" transform="translate(348.1564 83.2695)scale(0.16 -0.16)">
       <defs>
        <path id="DejaVuSans-33" d="M 2597 2516 
Q 3050 2419 3304 2112 
Q 3559 1806 3559 1356 
Q 3559 666 3084 287 
Q 2609 -91 1734 -91 
Q 1441 -91 1130 -33 
Q 819 25 488 141 
L 488 750 
Q 750 597 1062 519 
Q 1375 441 1716 441 
Q 2309 441 2620 675 
Q 2931 909 2931 1356 
Q 2931 1769 2642 2001 
Q 2353 2234 1838 2234 
L 1294 2234 
L 1294 2753 
L 1863 2753 
Q 2328 2753 2575 2939 
Q 2822 3125 2822 3475 
Q 2822 3834 2567 4026 
Q 2313 4219 1838 4219 
Q 1578 4219 1281 4162 
Q 984 4106 628 3988 
L 628 4550 
Q 988 4650 1302 4700 
Q 1616 4750 1894 4750 
Q 2613 4750 3031 4423 
Q 3450 4097 3450 3541 
Q 3450 3153 3228 2886 
Q 3006 2619 2597 2516 
z
" transform="scale(0.015625)"/>
       </defs>
       <use xlink:href="#DejaVuSans-33"/>
      </g>
     </g>
    </g>
    <g id="xtick_5">
     <g id="line2d_9">
      <path d="M 441.6912 63.612 
L 441.6912 10.044 
" clip-path="url(#pfdd7863b9c)" style="fill: none; stroke: #ededed; stroke-width: 0.7; stroke-linecap: square"/>
     </g>
     <g id="line2d_10">
      <g>
       <use xlink:href="#m0232b61df3" x="441.6912" y="63.612" style="fill: #222222; stroke: #222222; stroke-width: 0.9"/>
      </g>
     </g>
     <g id="text_5">
      <!-- 4 -->
      <g style="fill: #222222" transform="translate(436.6012 83.2695)scale(0.16 -0.16)">
       <defs>
        <path id="DejaVuSans-34" d="M 2419 4116 
L 825 1625 
L 2419 1625 
L 2419 4116 
z
M 2253 4666 
L 3047 4666 
L 3047 1625 
L 3713 1625 
L 3713 1100 
L 3047 1100 
L 3047 0 
L 2419 0 
L 2419 1100 
L 313 1100 
L 313 1709 
L 2253 4666 
z
" transform="scale(0.015625)"/>
       </defs>
       <use xlink:href="#DejaVuSans-34"/>
      </g>
     </g>
    </g>
    <g id="xtick_6">
     <g id="line2d_11">
      <path d="M 530.136 63.612 
L 530.136 10.044 
" clip-path="url(#pfdd7863b9c)" style="fill: none; stroke: #ededed; stroke-width: 0.7; stroke-linecap: square"/>
     </g>
     <g id="line2d_12">
      <g>
       <use xlink:href="#m0232b61df3" x="530.136" y="63.612" style="fill: #222222; stroke: #222222; stroke-width: 0.9"/>
      </g>
     </g>
     <g id="text_6">
      <!-- 5 -->
      <g style="fill: #222222" transform="translate(525.046 83.2695)scale(0.16 -0.16)">
       <defs>
        <path id="DejaVuSans-35" d="M 691 4666 
L 3169 4666 
L 3169 4134 
L 1269 4134 
L 1269 2991 
Q 1406 3038 1543 3061 
Q 1681 3084 1819 3084 
Q 2600 3084 3056 2656 
Q 3513 2228 3513 1497 
Q 3513 744 3044 326 
Q 2575 -91 1722 -91 
Q 1428 -91 1123 -41 
Q 819 9 494 109 
L 494 744 
Q 775 591 1075 516 
Q 1375 441 1709 441 
Q 2250 441 2565 725 
Q 2881 1009 2881 1497 
Q 2881 1984 2565 2268 
Q 2250 2553 1709 2553 
Q 1456 2553 1204 2497 
Q 953 2441 691 2322 
L 691 4666 
z
" transform="scale(0.015625)"/>
       </defs>
       <use xlink:href="#DejaVuSans-35"/>
      </g>
     </g>
    </g>
    <g id="text_7">
     <!-- Time (s) -->
     <g transform="translate(268.366188 102.793875)scale(0.2 -0.2)">
      <defs>
       <path id="DejaVuSans-54" d="M -19 4666 
L 3928 4666 
L 3928 4134 
L 2272 4134 
L 2272 0 
L 1638 0 
L 1638 4134 
L -19 4134 
L -19 4666 
z
" transform="scale(0.015625)"/>
       <path id="DejaVuSans-69" d="M 603 3500 
L 1178 3500 
L 1178 0 
L 603 0 
L 603 3500 
z
M 603 4863 
L 1178 4863 
L 1178 4134 
L 603 4134 
L 603 4863 
z
" transform="scale(0.015625)"/>
       <path id="DejaVuSans-6d" d="M 3328 2828 
Q 3544 3216 3844 3400 
Q 4144 3584 4550 3584 
Q 5097 3584 5394 3201 
Q 5691 2819 5691 2113 
L 5691 0 
L 5113 0 
L 5113 2094 
Q 5113 2597 4934 2840 
Q 4756 3084 4391 3084 
Q 3944 3084 3684 2787 
Q 3425 2491 3425 1978 
L 3425 0 
L 2847 0 
L 2847 2094 
Q 2847 2600 2669 2842 
Q 2491 3084 2119 3084 
Q 1678 3084 1418 2786 
Q 1159 2488 1159 1978 
L 1159 0 
L 581 0 
L 581 3500 
L 1159 3500 
L 1159 2956 
Q 1356 3278 1631 3431 
Q 1906 3584 2284 3584 
Q 2666 3584 2933 3390 
Q 3200 3197 3328 2828 
z
" transform="scale(0.015625)"/>
       <path id="DejaVuSans-65" d="M 3597 1894 
L 3597 1613 
L 953 1613 
Q 991 1019 1311 708 
Q 1631 397 2203 397 
Q 2534 397 2845 478 
Q 3156 559 3463 722 
L 3463 178 
Q 3153 47 2828 -22 
Q 2503 -91 2169 -91 
Q 1331 -91 842 396 
Q 353 884 353 1716 
Q 353 2575 817 3079 
Q 1281 3584 2069 3584 
Q 2775 3584 3186 3129 
Q 3597 2675 3597 1894 
z
M 3022 2063 
Q 3016 2534 2758 2815 
Q 2500 3097 2075 3097 
Q 1594 3097 1305 2825 
Q 1016 2553 972 2059 
L 3022 2063 
z
" transform="scale(0.015625)"/>
       <path id="DejaVuSans-20" transform="scale(0.015625)"/>
       <path id="DejaVuSans-28" d="M 1984 4856 
Q 1566 4138 1362 3434 
Q 1159 2731 1159 2009 
Q 1159 1288 1364 580 
Q 1569 -128 1984 -844 
L 1484 -844 
Q 1016 -109 783 600 
Q 550 1309 550 2009 
Q 550 2706 781 3412 
Q 1013 4119 1484 4856 
L 1984 4856 
z
" transform="scale(0.015625)"/>
       <path id="DejaVuSans-73" d="M 2834 3397 
L 2834 2853 
Q 2591 2978 2328 3040 
Q 2066 3103 1784 3103 
Q 1356 3103 1142 2972 
Q 928 2841 928 2578 
Q 928 2378 1081 2264 
Q 1234 2150 1697 2047 
L 1894 2003 
Q 2506 1872 2764 1633 
Q 3022 1394 3022 966 
Q 3022 478 2636 193 
Q 2250 -91 1575 -91 
Q 1294 -91 989 -36 
Q 684 19 347 128 
L 347 722 
Q 666 556 975 473 
Q 1284 391 1588 391 
Q 1994 391 2212 530 
Q 2431 669 2431 922 
Q 2431 1156 2273 1281 
Q 2116 1406 1581 1522 
L 1381 1569 
Q 847 1681 609 1914 
Q 372 2147 372 2553 
Q 372 3047 722 3315 
Q 1072 3584 1716 3584 
Q 2034 3584 2315 3537 
Q 2597 3491 2834 3397 
z
" transform="scale(0.015625)"/>
       <path id="DejaVuSans-29" d="M 513 4856 
L 1013 4856 
Q 1481 4119 1714 3412 
Q 1947 2706 1947 2009 
Q 1947 1309 1714 600 
Q 1481 -109 1013 -844 
L 513 -844 
Q 928 -128 1133 580 
Q 1338 1288 1338 2009 
Q 1338 2731 1133 3434 
Q 928 4138 513 4856 
z
" transform="scale(0.015625)"/>
      </defs>
      <use xlink:href="#DejaVuSans-54"/>
      <use xlink:href="#DejaVuSans-69" x="57.958984"/>
      <use xlink:href="#DejaVuSans-6d" x="85.742188"/>
      <use xlink:href="#DejaVuSans-65" x="183.154297"/>
      <use xlink:href="#DejaVuSans-20" x="244.677734"/>
      <use xlink:href="#DejaVuSans-28" x="276.464844"/>
      <use xlink:href="#DejaVuSans-73" x="315.478516"/>
      <use xlink:href="#DejaVuSans-29" x="367.578125"/>
     </g>
    </g>
   </g>
   <g id="matplotlib.axis_2">
    <g id="ytick_1">
     <g id="line2d_13">
      <path d="M 87.912 63.612 
L 530.136 63.612 
" clip-path="url(#pfdd7863b9c)" style="fill: none; stroke: #ededed; stroke-width: 0.7; stroke-linecap: square"/>
     </g>
     <g id="line2d_14">
      <defs>
       <path id="md4e397adb6" d="M 0 0 
L -4 0 
" style="stroke: #222222; stroke-width: 0.9"/>
      </defs>
      <g>
       <use xlink:href="#md4e397adb6" x="87.912" y="63.612" style="fill: #222222; stroke: #222222; stroke-width: 0.9"/>
      </g>
     </g>
     <g id="text_8">
      <!-- −0.04 -->
      <g style="fill: #222222" transform="translate(31.3795 69.69075)scale(0.16 -0.16)">
       <defs>
        <path id="DejaVuSans-2212" d="M 678 2272 
L 4684 2272 
L 4684 1741 
L 678 1741 
L 678 2272 
z
" transform="scale(0.015625)"/>
        <path id="DejaVuSans-2e" d="M 684 794 
L 1344 794 
L 1344 0 
L 684 0 
L 684 794 
z
" transform="scale(0.015625)"/>
       </defs>
       <use xlink:href="#DejaVuSans-2212"/>
       <use xlink:href="#DejaVuSans-30" x="83.789062"/>
       <use xlink:href="#DejaVuSans-2e" x="147.412109"/>
       <use xlink:href="#DejaVuSans-30" x="179.199219"/>
       <use xlink:href="#DejaVuSans-34" x="242.822266"/>
      </g>
     </g>
    </g>
    <g id="ytick_2">
     <g id="line2d_15">
      <path d="M 87.912 50.22 
L 530.136 50.22 
" clip-path="url(#pfdd7863b9c)" style="fill: none; stroke: #ededed; stroke-width: 0.7; stroke-linecap: square"/>
     </g>
     <g id="line2d_16">
      <g>
       <use xlink:href="#md4e397adb6" x="87.912" y="50.22" style="fill: #222222; stroke: #222222; stroke-width: 0.9"/>
      </g>
     </g>
     <g id="text_9">
      <!-- −0.02 -->
      <g style="fill: #222222" transform="translate(31.3795 56.29875)scale(0.16 -0.16)">
       <use xlink:href="#DejaVuSans-2212"/>
       <use xlink:href="#DejaVuSans-30" x="83.789062"/>
       <use xlink:href="#DejaVuSans-2e" x="147.412109"/>
       <use xlink:href="#DejaVuSans-30" x="179.199219"/>
       <use xlink:href="#DejaVuSans-32" x="242.822266"/>
      </g>
     </g>
    </g>
    <g id="ytick_3">
     <g id="line2d_17">
      <path d="M 87.912 36.828 
L 530.136 36.828 
" clip-path="url(#pfdd7863b9c)" style="fill: none; stroke: #ededed; stroke-width: 0.7; stroke-linecap: square"/>
     </g>
     <g id="line2d_18">
      <g>
       <use xlink:href="#md4e397adb6" x="87.912" y="36.828" style="fill: #222222; stroke: #222222; stroke-width: 0.9"/>
      </g>
     </g>
     <g id="text_10">
      <!-- 0.00 -->
      <g style="fill: #222222" transform="translate(44.787 42.90675)scale(0.16 -0.16)">
       <use xlink:href="#DejaVuSans-30"/>
       <use xlink:href="#DejaVuSans-2e" x="63.623047"/>
       <use xlink:href="#DejaVuSans-30" x="95.410156"/>
       <use xlink:href="#DejaVuSans-30" x="159.033203"/>
      </g>
     </g>
    </g>
    <g id="ytick_4">
     <g id="line2d_19">
      <path d="M 87.912 23.436 
L 530.136 23.436 
" clip-path="url(#pfdd7863b9c)" style="fill: none; stroke: #ededed; stroke-width: 0.7; stroke-linecap: square"/>
     </g>
     <g id="line2d_20">
      <g>
       <use xlink:href="#md4e397adb6" x="87.912" y="23.436" style="fill: #222222; stroke: #222222; stroke-width: 0.9"/>
      </g>
     </g>
     <g id="text_11">
      <!-- 0.02 -->
      <g style="fill: #222222" transform="translate(44.787 29.51475)scale(0.16 -0.16)">
       <use xlink:href="#DejaVuSans-30"/>
       <use xlink:href="#DejaVuSans-2e" x="63.623047"/>
       <use xlink:href="#DejaVuSans-30" x="95.410156"/>
       <use xlink:href="#DejaVuSans-32" x="159.033203"/>
      </g>
     </g>
    </g>
    <g id="ytick_5">
     <g id="line2d_21">
      <path d="M 87.912 10.044 
L 530.136 10.044 
" clip-path="url(#pfdd7863b9c)" style="fill: none; stroke: #ededed; stroke-width: 0.7; stroke-linecap: square"/>
     </g>
     <g id="line2d_22">
      <g>
       <use xlink:href="#md4e397adb6" x="87.912" y="10.044" style="fill: #222222; stroke: #222222; stroke-width: 0.9"/>
      </g>
     </g>
     <g id="text_12">
      <!-- 0.04 -->
      <g style="fill: #222222" transform="translate(44.787 16.12275)scale(0.16 -0.16)">
       <use xlink:href="#DejaVuSans-30"/>
       <use xlink:href="#DejaVuSans-2e" x="63.623047"/>
       <use xlink:href="#DejaVuSans-30" x="95.410156"/>
       <use xlink:href="#DejaVuSans-34" x="159.033203"/>
      </g>
     </g>
    </g>
    <g id="text_13">
     <!-- $\Delta I/I$ -->
     <g transform="translate(24.012156 53.838)rotate(-90)scale(0.21 -0.21)">
      <defs>
       <path id="DejaVuSans-394" d="M 2188 4044 
L 906 525 
L 3472 525 
L 2188 4044 
z
M 50 0 
L 1831 4666 
L 2547 4666 
L 4325 0 
L 50 0 
z
" transform="scale(0.015625)"/>
       <path id="DejaVuSans-Oblique-49" d="M 1081 4666 
L 1716 4666 
L 806 0 
L 172 0 
L 1081 4666 
z
" transform="scale(0.015625)"/>
       <path id="DejaVuSans-2f" d="M 1625 4666 
L 2156 4666 
L 531 -594 
L 0 -594 
L 1625 4666 
z
" transform="scale(0.015625)"/>
      </defs>
      <use xlink:href="#DejaVuSans-394" transform="translate(0 0.09375)"/>
      <use xlink:href="#DejaVuSans-Oblique-49" transform="translate(68.408203 0.09375)"/>
      <use xlink:href="#DejaVuSans-2f" transform="translate(97.900391 0.09375)"/>
      <use xlink:href="#DejaVuSans-Oblique-49" transform="translate(131.591797 0.09375)"/>
     </g>
    </g>
   </g>
   <g id="line2d_23">
    <path d="M 87.912 29.509017 
L 90.42907 25.949149 
L 95.46321 26.215536 
L 97.980279 26.256189 
L 105.53149 25.913106 
L 108.048558 26.032326 
L 113.082699 26.611866 
L 123.150979 27.803202 
L 128.185117 28.419448 
L 130.702187 28.591663 
L 133.219257 28.935432 
L 135.736324 30.254772 
L 138.253397 31.431532 
L 140.770465 32.441392 
L 143.287537 32.278576 
L 145.804605 31.987506 
L 148.321678 31.539208 
L 150.838745 31.41554 
L 153.355818 31.573907 
L 158.389958 32.559928 
L 163.424093 36.183375 
L 165.941166 37.679858 
L 168.458233 37.607199 
L 173.492374 36.960269 
L 176.009446 37.016275 
L 178.526514 37.352903 
L 183.560649 38.419316 
L 186.077727 37.999102 
L 188.594794 37.160955 
L 191.111862 35.983374 
L 198.663075 33.940932 
L 201.180142 33.666355 
L 206.214277 33.910043 
L 208.731355 34.084356 
L 213.76549 37.198687 
L 216.282558 38.835196 
L 223.833771 39.393201 
L 226.350838 39.446879 
L 228.867916 39.38444 
L 231.384984 39.459837 
L 233.902051 39.662553 
L 241.453264 38.056271 
L 246.487399 38.61845 
L 251.521545 39.816038 
L 254.038612 40.554493 
L 256.55568 40.818735 
L 259.072747 40.767338 
L 264.106893 37.948024 
L 266.62395 36.904309 
L 269.141028 37.21874 
L 284.243454 40.38351 
L 286.760511 39.974337 
L 291.794667 38.478402 
L 294.311724 38.650092 
L 296.828802 39.120974 
L 299.345858 40.122279 
L 301.862937 41.404959 
L 304.380015 42.932171 
L 306.897071 44.089768 
L 309.41415 44.629431 
L 311.931206 42.857824 
L 316.965363 38.402686 
L 319.482419 37.922314 
L 327.033632 37.407494 
L 329.55071 37.350393 
L 332.067767 37.452025 
L 334.584845 37.41687 
L 337.101923 38.097814 
L 342.136058 39.166029 
L 344.653115 39.209351 
L 347.170193 39.633238 
L 349.687271 40.311239 
L 352.204328 40.824712 
L 354.721406 41.150595 
L 364.789676 41.009976 
L 367.306754 41.284005 
L 369.823832 41.67219 
L 372.340889 41.663293 
L 374.857967 41.37471 
L 377.375024 40.958465 
L 379.892102 40.701979 
L 382.40918 40.637304 
L 384.926237 40.914618 
L 387.443315 40.537589 
L 392.47745 40.157594 
L 397.511585 41.437901 
L 402.54572 42.545926 
L 405.062798 42.941068 
L 410.096933 43.319056 
L 417.648146 37.710815 
L 420.165224 37.580051 
L 422.682281 37.265347 
L 425.199359 37.135929 
L 427.716437 37.127397 
L 430.233494 37.374028 
L 432.750572 37.396955 
L 435.267629 37.25864 
L 437.784707 37.330067 
L 440.301785 37.240389 
L 442.818842 37.351945 
L 445.335899 37.099177 
L 450.370055 37.59837 
L 455.404211 38.232045 
L 457.921268 38.519397 
L 460.438325 38.191917 
L 462.955424 37.341907 
L 465.472481 36.244628 
L 467.989538 35.723671 
L 470.506595 35.889635 
L 473.023694 36.453731 
L 478.057808 37.836788 
L 480.574907 38.429057 
L 483.091964 38.730667 
L 485.609021 38.832094 
L 490.643177 37.112158 
L 493.160234 36.327712 
L 495.677333 36.462377 
L 500.711447 37.031172 
L 503.228504 37.03667 
L 505.745603 36.693541 
L 508.26266 36.135262 
L 513.296816 35.413028 
L 515.813873 35.2991 
L 520.848029 34.897296 
L 523.365086 35.063533 
L 528.399242 36.321667 
L 528.399242 36.321667 
" clip-path="url(#pfdd7863b9c)" style="fill: none; stroke: #d62728; stroke-width: 2.35; stroke-linecap: square"/>
   </g>
   <g id="line2d_24">
    <path d="M 87.912 30.938904 
L 90.42907 28.008042 
L 95.46321 27.996883 
L 100.497349 27.555301 
L 105.53149 26.791147 
L 108.048558 26.472528 
L 110.565628 26.270376 
L 115.599769 26.152995 
L 118.116839 26.389355 
L 120.633909 26.863875 
L 123.150979 27.83252 
L 128.185117 29.419324 
L 133.219257 30.341718 
L 135.736324 31.357096 
L 140.770465 32.971397 
L 145.804605 32.400204 
L 150.838745 31.776992 
L 155.872885 31.767972 
L 158.389958 31.945355 
L 160.907026 33.505483 
L 163.424093 34.930358 
L 165.941166 36.108084 
L 170.975306 35.180219 
L 173.492374 34.999938 
L 176.009446 35.413665 
L 178.526514 36.412257 
L 181.043581 37.734103 
L 183.560649 38.852542 
L 186.077727 38.712266 
L 188.594794 38.254595 
L 191.111862 37.182115 
L 193.628929 36.552424 
L 196.146007 35.708291 
L 198.663075 35.077438 
L 201.180142 34.793941 
L 203.69721 34.635965 
L 208.731355 34.703158 
L 213.76549 36.849716 
L 216.282558 38.00692 
L 221.316703 38.297468 
L 226.350838 38.323323 
L 228.867916 38.148234 
L 233.902051 38.119528 
L 236.419119 36.929122 
L 238.936186 36.052609 
L 241.453264 35.68022 
L 246.487399 37.746209 
L 251.521545 39.273508 
L 254.038612 39.747919 
L 256.55568 39.88714 
L 259.072747 39.746632 
L 264.106893 37.356056 
L 266.62395 36.30633 
L 274.175163 37.189663 
L 279.209298 37.570562 
L 284.243454 38.274792 
L 286.760511 37.72192 
L 291.794667 36.142603 
L 294.311724 36.120933 
L 296.828802 36.383443 
L 299.345858 37.38966 
L 301.862937 39.170556 
L 304.380015 41.461559 
L 306.897071 43.34505 
L 309.41415 44.420244 
L 311.931206 43.432238 
L 314.448284 41.963979 
L 316.965363 40.320553 
L 319.482419 39.773679 
L 324.516554 39.078501 
L 332.067767 38.719845 
L 334.584845 38.303203 
L 339.61898 38.34307 
L 342.136058 38.593659 
L 344.653115 38.47048 
L 352.204328 38.730943 
L 354.721406 38.698021 
L 357.238463 38.873544 
L 359.755541 39.697621 
L 367.306754 40.562788 
L 369.823832 41.336365 
L 372.340889 41.767407 
L 374.857967 41.715652 
L 379.892102 41.221634 
L 382.40918 41.247054 
L 384.926237 41.392878 
L 387.443315 40.326908 
L 392.47745 38.709724 
L 394.994528 39.232789 
L 397.511585 39.462097 
L 400.028663 39.813251 
L 405.062798 40.225646 
L 410.096933 40.047984 
L 412.614011 38.748086 
L 415.131089 38.027302 
L 417.648146 37.532447 
L 420.165224 38.290772 
L 422.682281 38.533441 
L 430.233494 38.727022 
L 432.750572 38.552321 
L 435.267629 38.006005 
L 437.784707 38.097983 
L 440.301785 37.951414 
L 442.818842 37.986785 
L 445.335899 37.494906 
L 447.852998 37.375137 
L 457.921268 37.630206 
L 460.438325 37.217966 
L 462.955424 36.593515 
L 465.472481 35.696402 
L 467.989538 35.545772 
L 470.506595 36.13152 
L 473.023694 37.485637 
L 478.057808 40.758941 
L 480.574907 41.862794 
L 483.091964 42.631319 
L 485.609021 42.939615 
L 488.12612 41.883719 
L 493.160234 39.339321 
L 495.677333 39.236726 
L 503.228504 39.261092 
L 505.745603 38.86412 
L 513.296816 37.296257 
L 515.813873 36.903749 
L 520.848029 36.487216 
L 523.365086 36.427711 
L 528.399242 36.794132 
L 528.399242 36.794132 
" clip-path="url(#pfdd7863b9c)" style="fill: none; stroke: #2ca02c; stroke-width: 2.35; stroke-linecap: square"/>
   </g>
   <g id="line2d_25">
    <path d="M 87.912 25.743601 
L 90.42907 20.457263 
L 95.46321 20.936129 
L 97.980279 20.891779 
L 103.014419 19.842953 
L 105.53149 19.649066 
L 108.048558 20.214465 
L 110.565628 21.315297 
L 113.082699 21.952102 
L 115.599769 22.301779 
L 118.116839 21.847347 
L 123.150979 22.795257 
L 125.668047 23.809333 
L 130.702187 24.451914 
L 133.219257 24.4404 
L 135.736324 25.929502 
L 138.253397 27.025278 
L 140.770465 28.645035 
L 143.287537 28.55937 
L 145.804605 28.353638 
L 148.321678 27.430574 
L 150.838745 27.38509 
L 153.355818 27.846848 
L 155.872885 28.590285 
L 158.389958 28.987408 
L 160.907026 31.826476 
L 165.941166 36.963153 
L 168.458233 36.713463 
L 173.492374 36.665812 
L 176.009446 36.898868 
L 178.526514 38.055381 
L 181.043581 38.478114 
L 183.560649 39.336625 
L 186.077727 38.333344 
L 188.594794 37.20917 
L 191.111862 35.652357 
L 193.628929 34.70426 
L 196.146007 33.894144 
L 198.663075 32.821853 
L 201.180142 32.165092 
L 203.69721 31.747353 
L 208.731355 32.221618 
L 211.248423 34.562234 
L 216.282558 37.88145 
L 218.799636 38.232387 
L 221.316703 38.862711 
L 223.833771 39.822859 
L 226.350838 40.527291 
L 228.867916 40.846984 
L 231.384984 41.355259 
L 233.902051 41.716555 
L 241.453264 35.418681 
L 243.970332 36.483089 
L 249.004467 37.598534 
L 251.521545 38.069043 
L 254.038612 38.742437 
L 256.55568 39.107076 
L 259.072747 39.048652 
L 266.62395 33.298182 
L 269.141028 33.785077 
L 271.658106 34.634568 
L 274.175163 35.864962 
L 279.209298 37.490085 
L 281.726376 37.984863 
L 284.243454 38.824759 
L 286.760511 38.467465 
L 291.794667 37.045599 
L 294.311724 37.745285 
L 296.828802 39.078721 
L 299.345858 40.671959 
L 301.862937 42.517653 
L 304.380015 44.688817 
L 306.897071 46.436215 
L 309.41415 47.599827 
L 311.931206 46.062248 
L 316.965363 41.563241 
L 319.482419 40.849336 
L 324.516554 39.906585 
L 327.033632 39.670226 
L 329.55071 39.30377 
L 334.584845 38.112567 
L 337.101923 38.559033 
L 339.61898 38.835531 
L 342.136058 39.517985 
L 344.653115 39.31803 
L 347.170193 39.76945 
L 349.687271 40.558206 
L 352.204328 41.780716 
L 354.721406 42.326284 
L 357.238463 42.756302 
L 359.755541 43.313054 
L 362.272619 42.757437 
L 364.789676 42.551209 
L 367.306754 41.816378 
L 369.823832 43.016146 
L 374.857967 44.446308 
L 377.375024 44.602243 
L 382.40918 43.849355 
L 384.926237 44.086085 
L 387.443315 42.717669 
L 392.47745 40.872924 
L 394.994528 42.039012 
L 397.511585 42.86828 
L 402.54572 43.717772 
L 407.579876 44.737603 
L 410.096933 45.091883 
L 412.614011 43.222746 
L 415.131089 41.525516 
L 417.648146 39.559383 
L 420.165224 39.733954 
L 422.682281 39.664221 
L 430.233494 39.968104 
L 435.267629 39.63927 
L 440.301785 39.465236 
L 445.335899 38.477083 
L 447.852998 38.446436 
L 450.370055 38.965917 
L 455.404211 39.779232 
L 457.921268 40.518026 
L 460.438325 40.602329 
L 462.955424 40.016127 
L 465.472481 38.910878 
L 467.989538 38.971345 
L 470.506595 39.789613 
L 473.023694 40.897627 
L 475.540751 41.833569 
L 480.574907 43.300053 
L 485.609021 43.845083 
L 490.643177 40.08972 
L 493.160234 38.237897 
L 495.677333 38.383348 
L 498.19439 38.702462 
L 500.711447 38.866219 
L 503.228504 38.179431 
L 508.26266 37.063409 
L 510.779717 36.983522 
L 513.296816 36.746276 
L 515.813873 37.021041 
L 520.848029 37.767388 
L 525.882143 38.213194 
L 528.399242 37.927285 
L 528.399242 37.927285 
" clip-path="url(#pfdd7863b9c)" style="fill: none; stroke: #1f77b4; stroke-width: 2.35; stroke-linecap: square"/>
   </g>
   <g id="patch_3">
    <path d="M 87.912 63.612 
L 87.912 10.044 
" style="fill: none; stroke: #222222; stroke-width: 0.95; stroke-linejoin: miter; stroke-linecap: square"/>
   </g>
   <g id="patch_4">
    <path d="M 530.136 63.612 
L 530.136 10.044 
" style="fill: none; stroke: #222222; stroke-width: 0.95; stroke-linejoin: miter; stroke-linecap: square"/>
   </g>
   <g id="patch_5">
    <path d="M 87.912 63.612 
L 530.136 63.612 
" style="fill: none; stroke: #222222; stroke-width: 0.95; stroke-linejoin: miter; stroke-linecap: square"/>
   </g>
   <g id="patch_6">
    <path d="M 87.912 10.044 
L 530.136 10.044 
" style="fill: none; stroke: #222222; stroke-width: 0.95; stroke-linejoin: miter; stroke-linecap: square"/>
   </g>
  </g>
 </g>
 <defs>
  <clipPath id="pfdd7863b9c">
   <rect x="87.912" y="10.044" width="442.224" height="53.568"/>
  </clipPath>
 </defs>
</svg>
