<?xml version="1.0" encoding="utf-8" standalone="no"?>
<!DOCTYPE svg PUBLIC "-//W3C//DTD SVG 1.1//EN"
  "http://www.w3.org/Graphics/SVG/1.1/DTD/svg11.dtd">
<svg xmlns:xlink="http://www.w3.org/1999/xlink" width="532.8pt" height="111.6pt" viewBox="0 0 532.8 111.6" xmlns="http://www.w3.org/2000/svg" version="1.1">
 <metadata>
  <rdf:RDF xmlns:dc="http://purl.org/dc/elements/1.1/" xmlns:cc="http://creativecommons.org/ns#" xmlns:rdf="http://www.w3.org/1999/02/22-rdf-syntax-ns#">
   <cc:Work>
    <dc:type rdf:resource="http://purl.org/dc/dcmitype/StillImage"/>
    <dc:date>2026-05-24T19:32:19.309642</dc:date>
    <dc:format>image/svg+xml</dc:format>
    <dc:creator>
     <cc:Agent>
      <dc:title>Matplotlib v3.5.3, https://matplotlib.org/</dc:title>
     </cc:Agent>
    </dc:creator>
   </cc:Work>
  </rdf:RDF>
 </metadata>
 <defs>
  <style type="text/css">*{stroke-linejoin: round; stroke-linecap: butt}</style>
 </defs>
 <g id="figure_1">
  <g id="patch_1">
   <path d="M 0 111.6 
L 532.8 111.6 
L 532.8 0 
L 0 0 
z
" style="fill: #ffffff"/>
  </g>
  <g id="axes_1">
   <g id="patch_2">
    <path d="M 87.912 63.612 
L 530.136 63.612 
L 530.136 10.044 
L 87.912 10.044 
z
" style="fill: #ffffff"/>
   </g>
   <g id="matplotlib.axis_1">
    <g id="xtick_1">
     <g id="line2d_1">
      <path d="M 87.912 63.612 
L 87.912 10.044 
" clip-path="url(#p63c6c04a2e)" style="fill: none; stroke: #ededed; stroke-width: 0.7; stroke-linecap: square"/>
     </g>
     <g id="line2d_2">
      <defs>
       <path id="ma7ee53af1f" d="M 0 0 
L 0 4 
" style="stroke: #222222; stroke-width: 0.9"/>
      </defs>
      <g>
       <use xlink:href="#ma7ee53af1f" x="87.912" y="63.612" style="fill: #222222; stroke: #222222; stroke-width: 0.9"/>
      </g>
     </g>
     <g id="text_1">
      <!-- 0 -->
      <g style="fill: #222222" transform="translate(82.822 83.2695)scale(0.16 -0.16)">
       <defs>
        <path id="DejaVuSans-30" d="M 2034 4250 
Q 1547 4250 1301 3770 
Q 1056 3291 1056 2328 
Q 1056 1369 1301 889 
Q 1547 409 2034 409 
Q 2525 409 2770 889 
Q 3016 1369 3016 2328 
Q 3016 3291 2770 3770 
Q 2525 4250 2034 4250 
z
M 2034 4750 
Q 2819 4750 3233 4129 
Q 3647 3509 3647 2328 
Q 3647 1150 3233 529 
Q 2819 -91 2034 -91 
Q 1250 -91 836 529 
Q 422 1150 422 2328 
Q 422 3509 836 4129 
Q 1250 4750 2034 4750 
z
" transform="scale(0.015625)"/>
       </defs>
       <use xlink:href="#DejaVuSans-30"/>
      </g>
     </g>
    </g>
    <g id="xtick_2">
     <g id="line2d_3">
      <path d="M 176.3568 63.612 
L 176.3568 10.044 
" clip-path="url(#p63c6c04a2e)" style="fill: none; stroke: #ededed; stroke-width: 0.7; stroke-linecap: square"/>
     </g>
     <g id="line2d_4">
      <g>
       <use xlink:href="#ma7ee53af1f" x="176.3568" y="63.612" style="fill: #222222; stroke: #222222; stroke-width: 0.9"/>
      </g>
     </g>
     <g id="text_2">
      <!-- 1 -->
      <g style="fill: #222222" transform="translate(171.2668 83.2695)scale(0.16 -0.16)">
       <defs>
        <path id="DejaVuSans-31" d="M 794 531 
L 1825 531 
L 1825 4091 
L 703 3866 
L 703 4441 
L 1819 4666 
L 2450 4666 
L 2450 531 
L 3481 531 
L 3481 0 
L 794 0 
L 794 531 
z
" transform="scale(0.015625)"/>
       </defs>
       <use xlink:href="#DejaVuSans-31"/>
      </g>
     </g>
    </g>
    <g id="xtick_3">
     <g id="line2d_5">
      <path d="M 264.8016 63.612 
L 264.8016 10.044 
" clip-path="url(#p63c6c04a2e)" style="fill: none; stroke: #ededed; stroke-width: 0.7; stroke-linecap: square"/>
     </g>
     <g id="line2d_6">
      <g>
       <use xlink:href="#ma7ee53af1f" x="264.8016" y="63.612" style="fill: #222222; stroke: #222222; stroke-width: 0.9"/>
      </g>
     </g>
     <g id="text_3">
      <!-- 2 -->
      <g style="fill: #222222" transform="translate(259.7116 83.2695)scale(0.16 -0.16)">
       <defs>
        <path id="DejaVuSans-32" d="M 1228 531 
L 3431 531 
L 3431 0 
L 469 0 
L 469 531 
Q 828 903 1448 1529 
Q 2069 2156 2228 2338 
Q 2531 2678 2651 2914 
Q 2772 3150 2772 3378 
Q 2772 3750 2511 3984 
Q 2250 4219 1831 4219 
Q 1534 4219 1204 4116 
Q 875 4013 500 3803 
L 500 4441 
Q 881 4594 1212 4672 
Q 1544 4750 1819 4750 
Q 2544 4750 2975 4387 
Q 3406 4025 3406 3419 
Q 3406 3131 3298 2873 
Q 3191 2616 2906 2266 
Q 2828 2175 2409 1742 
Q 1991 1309 1228 531 
z
" transform="scale(0.015625)"/>
       </defs>
       <use xlink:href="#DejaVuSans-32"/>
      </g>
     </g>
    </g>
    <g id="xtick_4">
     <g id="line2d_7">
      <path d="M 353.2464 63.612 
L 353.2464 10.044 
" clip-path="url(#p63c6c04a2e)" style="fill: none; stroke: #ededed; stroke-width: 0.7; stroke-linecap: square"/>
     </g>
     <g id="line2d_8">
      <g>
       <use xlink:href="#ma7ee53af1f" x="353.2464" y="63.612" style="fill: #222222; stroke: #222222; stroke-width: 0.9"/>
      </g>
     </g>
     <g id="text_4">
      <!-- 3 -->
      <g style="fill: #222222" transform="translate(348.1564 83.2695)scale(0.16 -0.16)">
       <defs>
        <path id="DejaVuSans-33" d="M 2597 2516 
Q 3050 2419 3304 2112 
Q 3559 1806 3559 1356 
Q 3559 666 3084 287 
Q 2609 -91 1734 -91 
Q 1441 -91 1130 -33 
Q 819 25 488 141 
L 488 750 
Q 750 597 1062 519 
Q 1375 441 1716 441 
Q 2309 441 2620 675 
Q 2931 909 2931 1356 
Q 2931 1769 2642 2001 
Q 2353 2234 1838 2234 
L 1294 2234 
L 1294 2753 
L 1863 2753 
Q 2328 2753 2575 2939 
Q 2822 3125 2822 3475 
Q 2822 3834 2567 4026 
Q 2313 4219 1838 4219 
Q 1578 4219 1281 4162 
Q 984 4106 628 3988 
L 628 4550 
Q 988 4650 1302 4700 
Q 1616 4750 1894 4750 
Q 2613 4750 3031 4423 
Q 3450 4097 3450 3541 
Q 3450 3153 3228 2886 
Q 3006 2619 2597 2516 
z
" transform="scale(0.015625)"/>
       </defs>
       <use xlink:href="#DejaVuSans-33"/>
      </g>
     </g>
    </g>
    <g id="xtick_5">
     <g id="line2d_9">
      <path d="M 441.6912 63.612 
L 441.6912 10.044 
" clip-path="url(#p63c6c04a2e)" style="fill: none; stroke: #ededed; stroke-width: 0.7; stroke-linecap: square"/>
     </g>
     <g id="line2d_10">
      <g>
       <use xlink:href="#ma7ee53af1f" x="441.6912" y="63.612" style="fill: #222222; stroke: #222222; stroke-width: 0.9"/>
      </g>
     </g>
     <g id="text_5">
      <!-- 4 -->
      <g style="fill: #222222" transform="translate(436.6012 83.2695)scale(0.16 -0.16)">
       <defs>
        <path id="DejaVuSans-34" d="M 2419 4116 
L 825 1625 
L 2419 1625 
L 2419 4116 
z
M 2253 4666 
L 3047 4666 
L 3047 1625 
L 3713 1625 
L 3713 1100 
L 3047 1100 
L 3047 0 
L 2419 0 
L 2419 1100 
L 313 1100 
L 313 1709 
L 2253 4666 
z
" transform="scale(0.015625)"/>
       </defs>
       <use xlink:href="#DejaVuSans-34"/>
      </g>
     </g>
    </g>
    <g id="xtick_6">
     <g id="line2d_11">
      <path d="M 530.136 63.612 
L 530.136 10.044 
" clip-path="url(#p63c6c04a2e)" style="fill: none; stroke: #ededed; stroke-width: 0.7; stroke-linecap: square"/>
     </g>
     <g id="line2d_12">
      <g>
       <use xlink:href="#ma7ee53af1f" x="530.136" y="63.612" style="fill: #222222; stroke: #222222; stroke-width: 0.9"/>
      </g>
     </g>
     <g id="text_6">
      <!-- 5 -->
      <g style="fill: #222222" transform="translate(525.046 83.2695)scale(0.16 -0.16)">
       <defs>
        <path id="DejaVuSans-35" d="M 691 4666 
L 3169 4666 
L 3169 4134 
L 1269 4134 
L 1269 2991 
Q 1406 3038 1543 3061 
Q 1681 3084 1819 3084 
Q 2600 3084 3056 2656 
Q 3513 2228 3513 1497 
Q 3513 744 3044 326 
Q 2575 -91 1722 -91 
Q 1428 -91 1123 -41 
Q 819 9 494 109 
L 494 744 
Q 775 591 1075 516 
Q 1375 441 1709 441 
Q 2250 441 2565 725 
Q 2881 1009 2881 1497 
Q 2881 1984 2565 2268 
Q 2250 2553 1709 2553 
Q 1456 2553 1204 2497 
Q 953 2441 691 2322 
L 691 4666 
z
" transform="scale(0.015625)"/>
       </defs>
       <use xlink:href="#DejaVuSans-35"/>
      </g>
     </g>
    </g>
    <g id="text_7">
     <!-- Time (s) -->
     <g transform="translate(268.366188 102.793875)scale(0.2 -0.2)">
      <defs>
       <path id="DejaVuSans-54" d="M -19 4666 
L 3928 4666 
L 3928 4134 
L 2272 4134 
L 2272 0 
L 1638 0 
L 1638 4134 
L -19 4134 
L -19 4666 
z
" transform="scale(0.015625)"/>
       <path id="DejaVuSans-69" d="M 603 3500 
L 1178 3500 
L 1178 0 
L 603 0 
L 603 3500 
z
M 603 4863 
L 1178 4863 
L 1178 4134 
L 603 4134 
L 603 4863 
z
" transform="scale(0.015625)"/>
       <path id="DejaVuSans-6d" d="M 3328 2828 
Q 3544 3216 3844 3400 
Q 4144 3584 4550 3584 
Q 5097 3584 5394 3201 
Q 5691 2819 5691 2113 
L 5691 0 
L 5113 0 
L 5113 2094 
Q 5113 2597 4934 2840 
Q 4756 3084 4391 3084 
Q 3944 3084 3684 2787 
Q 3425 2491 3425 1978 
L 3425 0 
L 2847 0 
L 2847 2094 
Q 2847 2600 2669 2842 
Q 2491 3084 2119 3084 
Q 1678 3084 1418 2786 
Q 1159 2488 1159 1978 
L 1159 0 
L 581 0 
L 581 3500 
L 1159 3500 
L 1159 2956 
Q 1356 3278 1631 3431 
Q 1906 3584 2284 3584 
Q 2666 3584 2933 3390 
Q 3200 3197 3328 2828 
z
" transform="scale(0.015625)"/>
       <path id="DejaVuSans-65" d="M 3597 1894 
L 3597 1613 
L 953 1613 
Q 991 1019 1311 708 
Q 1631 397 2203 397 
Q 2534 397 2845 478 
Q 3156 559 3463 722 
L 3463 178 
Q 3153 47 2828 -22 
Q 2503 -91 2169 -91 
Q 1331 -91 842 396 
Q 353 884 353 1716 
Q 353 2575 817 3079 
Q 1281 3584 2069 3584 
Q 2775 3584 3186 3129 
Q 3597 2675 3597 1894 
z
M 3022 2063 
Q 3016 2534 2758 2815 
Q 2500 3097 2075 3097 
Q 1594 3097 1305 2825 
Q 1016 2553 972 2059 
L 3022 2063 
z
" transform="scale(0.015625)"/>
       <path id="DejaVuSans-20" transform="scale(0.015625)"/>
       <path id="DejaVuSans-28" d="M 1984 4856 
Q 1566 4138 1362 3434 
Q 1159 2731 1159 2009 
Q 1159 1288 1364 580 
Q 1569 -128 1984 -844 
L 1484 -844 
Q 1016 -109 783 600 
Q 550 1309 550 2009 
Q 550 2706 781 3412 
Q 1013 4119 1484 4856 
L 1984 4856 
z
" transform="scale(0.015625)"/>
       <path id="DejaVuSans-73" d="M 2834 3397 
L 2834 2853 
Q 2591 2978 2328 3040 
Q 2066 3103 1784 3103 
Q 1356 3103 1142 2972 
Q 928 2841 928 2578 
Q 928 2378 1081 2264 
Q 1234 2150 1697 2047 
L 1894 2003 
Q 2506 1872 2764 1633 
Q 3022 1394 3022 966 
Q 3022 478 2636 193 
Q 2250 -91 1575 -91 
Q 1294 -91 989 -36 
Q 684 19 347 128 
L 347 722 
Q 666 556 975 473 
Q 1284 391 1588 391 
Q 1994 391 2212 530 
Q 2431 669 2431 922 
Q 2431 1156 2273 1281 
Q 2116 1406 1581 1522 
L 1381 1569 
Q 847 1681 609 1914 
Q 372 2147 372 2553 
Q 372 3047 722 3315 
Q 1072 3584 1716 3584 
Q 2034 3584 2315 3537 
Q 2597 3491 2834 3397 
z
" transform="scale(0.015625)"/>
       <path id="DejaVuSans-29" d="M 513 4856 
L 1013 4856 
Q 1481 4119 1714 3412 
Q 1947 2706 1947 2009 
Q 1947 1309 1714 600 
Q 1481 -109 1013 -844 
L 513 -844 
Q 928 -128 1133 580 
Q 1338 1288 1338 2009 
Q 1338 2731 1133 3434 
Q 928 4138 513 4856 
z
" transform="scale(0.015625)"/>
      </defs>
      <use xlink:href="#DejaVuSans-54"/>
      <use xlink:href="#DejaVuSans-69" x="57.958984"/>
      <use xlink:href="#DejaVuSans-6d" x="85.742188"/>
      <use xlink:href="#DejaVuSans-65" x="183.154297"/>
      <use xlink:href="#DejaVuSans-20" x="244.677734"/>
      <use xlink:href="#DejaVuSans-28" x="276.464844"/>
      <use xlink:href="#DejaVuSans-73" x="315.478516"/>
      <use xlink:href="#DejaVuSans-29" x="367.578125"/>
     </g>
    </g>
   </g>
   <g id="matplotlib.axis_2">
    <g id="ytick_1">
     <g id="line2d_13">
      <path d="M 87.912 63.612 
L 530.136 63.612 
" clip-path="url(#p63c6c04a2e)" style="fill: none; stroke: #ededed; stroke-width: 0.7; stroke-linecap: square"/>
     </g>
     <g id="line2d_14">
      <defs>
       <path id="m75abda9a65" d="M 0 0 
L -4 0 
" style="stroke: #222222; stroke-width: 0.9"/>
      </defs>
      <g>
       <use xlink:href="#m75abda9a65" x="87.912" y="63.612" style="fill: #222222; stroke: #222222; stroke-width: 0.9"/>
      </g>
     </g>
     <g id="text_8">
      <!-- −0.04 -->
      <g style="fill: #222222" transform="translate(31.3795 69.69075)scale(0.16 -0.16)">
       <defs>
        <path id="DejaVuSans-2212" d="M 678 2272 
L 4684 2272 
L 4684 1741 
L 678 1741 
L 678 2272 
z
" transform="scale(0.015625)"/>
        <path id="DejaVuSans-2e" d="M 684 794 
L 1344 794 
L 1344 0 
L 684 0 
L 684 794 
z
" transform="scale(0.015625)"/>
       </defs>
       <use xlink:href="#DejaVuSans-2212"/>
       <use xlink:href="#DejaVuSans-30" x="83.789062"/>
       <use xlink:href="#DejaVuSans-2e" x="147.412109"/>
       <use xlink:href="#DejaVuSans-30" x="179.199219"/>
       <use xlink:href="#DejaVuSans-34" x="242.822266"/>
      </g>
     </g>
    </g>
    <g id="ytick_2">
     <g id="line2d_15">
      <path d="M 87.912 50.22 
L 530.136 50.22 
" clip-path="url(#p63c6c04a2e)" style="fill: none; stroke: #ededed; stroke-width: 0.7; stroke-linecap: square"/>
     </g>
     <g id="line2d_16">
      <g>
       <use xlink:href="#m75abda9a65" x="87.912" y="50.22" style="fill: #222222; stroke: #222222; stroke-width: 0.9"/>
      </g>
     </g>
     <g id="text_9">
      <!-- −0.02 -->
      <g style="fill: #222222" transform="translate(31.3795 56.29875)scale(0.16 -0.16)">
       <use xlink:href="#DejaVuSans-2212"/>
       <use xlink:href="#DejaVuSans-30" x="83.789062"/>
       <use xlink:href="#DejaVuSans-2e" x="147.412109"/>
       <use xlink:href="#DejaVuSans-30" x="179.199219"/>
       <use xlink:href="#DejaVuSans-32" x="242.822266"/>
      </g>
     </g>
    </g>
    <g id="ytick_3">
     <g id="line2d_17">
      <path d="M 87.912 36.828 
L 530.136 36.828 
" clip-path="url(#p63c6c04a2e)" style="fill: none; stroke: #ededed; stroke-width: 0.7; stroke-linecap: square"/>
     </g>
     <g id="line2d_18">
      <g>
       <use xlink:href="#m75abda9a65" x="87.912" y="36.828" style="fill: #222222; stroke: #222222; stroke-width: 0.9"/>
      </g>
     </g>
     <g id="text_10">
      <!-- 0.00 -->
      <g style="fill: #222222" transform="translate(44.787 42.90675)scale(0.16 -0.16)">
       <use xlink:href="#DejaVuSans-30"/>
       <use xlink:href="#DejaVuSans-2e" x="63.623047"/>
       <use xlink:href="#DejaVuSans-30" x="95.410156"/>
       <use xlink:href="#DejaVuSans-30" x="159.033203"/>
      </g>
     </g>
    </g>
    <g id="ytick_4">
     <g id="line2d_19">
      <path d="M 87.912 23.436 
L 530.136 23.436 
" clip-path="url(#p63c6c04a2e)" style="fill: none; stroke: #ededed; stroke-width: 0.7; stroke-linecap: square"/>
     </g>
     <g id="line2d_20">
      <g>
       <use xlink:href="#m75abda9a65" x="87.912" y="23.436" style="fill: #222222; stroke: #222222; stroke-width: 0.9"/>
      </g>
     </g>
     <g id="text_11">
      <!-- 0.02 -->
      <g style="fill: #222222" transform="translate(44.787 29.51475)scale(0.16 -0.16)">
       <use xlink:href="#DejaVuSans-30"/>
       <use xlink:href="#DejaVuSans-2e" x="63.623047"/>
       <use xlink:href="#DejaVuSans-30" x="95.410156"/>
       <use xlink:href="#DejaVuSans-32" x="159.033203"/>
      </g>
     </g>
    </g>
    <g id="ytick_5">
     <g id="line2d_21">
      <path d="M 87.912 10.044 
L 530.136 10.044 
" clip-path="url(#p63c6c04a2e)" style="fill: none; stroke: #ededed; stroke-width: 0.7; stroke-linecap: square"/>
     </g>
     <g id="line2d_22">
      <g>
       <use xlink:href="#m75abda9a65" x="87.912" y="10.044" style="fill: #222222; stroke: #222222; stroke-width: 0.9"/>
      </g>
     </g>
     <g id="text_12">
      <!-- 0.04 -->
      <g style="fill: #222222" transform="translate(44.787 16.12275)scale(0.16 -0.16)">
       <use xlink:href="#DejaVuSans-30"/>
       <use xlink:href="#DejaVuSans-2e" x="63.623047"/>
       <use xlink:href="#DejaVuSans-30" x="95.410156"/>
       <use xlink:href="#DejaVuSans-34" x="159.033203"/>
      </g>
     </g>
    </g>
    <g id="text_13">
     <!-- $\Delta I/I$ -->
     <g transform="translate(24.012156 53.838)rotate(-90)scale(0.21 -0.21)">
      <defs>
       <path id="DejaVuSans-394" d="M 2188 4044 
L 906 525 
L 3472 525 
L 2188 4044 
z
M 50 0 
L 1831 4666 
L 2547 4666 
L 4325 0 
L 50 0 
z
" transform="scale(0.015625)"/>
       <path id="DejaVuSans-Oblique-49" d="M 1081 4666 
L 1716 4666 
L 806 0 
L 172 0 
L 1081 4666 
z
" transform="scale(0.015625)"/>
       <path id="DejaVuSans-2f" d="M 1625 4666 
L 2156 4666 
L 531 -594 
L 0 -594 
L 1625 4666 
z
" transform="scale(0.015625)"/>
      </defs>
      <use xlink:href="#DejaVuSans-394" transform="translate(0 0.09375)"/>
      <use xlink:href="#DejaVuSans-Oblique-49" transform="translate(68.408203 0.09375)"/>
      <use xlink:href="#DejaVuSans-2f" transform="translate(97.900391 0.09375)"/>
      <use xlink:href="#DejaVuSans-Oblique-49" transform="translate(131.591797 0.09375)"/>
     </g>
    </g>
   </g>
   <g id="line2d_23">
    <path d="M 87.912 25.987013 
L 90.42907 20.647836 
L 92.94614 20.897661 
L 97.980279 21.007212 
L 103.014419 20.484597 
L 105.53149 20.355572 
L 108.048558 20.593431 
L 110.565628 21.147887 
L 115.599769 22.452779 
L 120.633909 23.271713 
L 130.702187 24.49271 
L 133.219257 25.29457 
L 135.736324 26.624759 
L 138.253397 27.689506 
L 140.770465 28.206452 
L 143.287537 27.992234 
L 148.321678 27.266875 
L 150.838745 27.327128 
L 153.355818 27.891937 
L 158.389958 29.880106 
L 160.907026 31.496263 
L 163.424093 32.882382 
L 165.941166 33.927568 
L 168.458233 33.975968 
L 173.492374 33.810218 
L 176.009446 34.10246 
L 178.526514 34.664244 
L 181.043581 35.519569 
L 183.560649 36.20771 
L 186.077727 35.073117 
L 188.594794 33.423439 
L 191.111862 31.490056 
L 198.663075 29.372415 
L 201.180142 29.077552 
L 203.69721 29.087434 
L 206.214277 29.415461 
L 208.731355 29.970455 
L 213.76549 31.764573 
L 216.282558 32.493944 
L 218.799636 32.958008 
L 223.833771 33.610498 
L 228.867916 33.428481 
L 231.384984 33.649331 
L 233.902051 34.252928 
L 236.419119 35.285117 
L 238.936186 36.10981 
L 241.453264 36.790288 
L 246.487399 37.163914 
L 249.004467 37.729059 
L 254.038612 39.364733 
L 256.55568 39.90328 
L 259.072747 40.009784 
L 264.106893 37.892142 
L 266.62395 37.12609 
L 271.658106 38.084356 
L 281.726376 40.809694 
L 284.243454 41.344566 
L 291.794667 35.365605 
L 294.311724 35.978367 
L 296.828802 36.752957 
L 299.345858 38.022398 
L 301.862937 39.690631 
L 306.897071 43.498127 
L 309.41415 44.55808 
L 311.931206 42.515527 
L 314.448284 39.346784 
L 316.965363 35.935949 
L 319.482419 34.963969 
L 321.999497 34.45137 
L 324.516554 34.240446 
L 332.067767 34.861566 
L 334.584845 34.564709 
L 337.101923 34.584181 
L 339.61898 34.410611 
L 344.653115 34.864322 
L 352.204328 37.108365 
L 354.721406 37.395655 
L 357.238463 37.240526 
L 359.755541 36.86188 
L 362.272619 38.128857 
L 364.789676 40.073556 
L 367.306754 42.355379 
L 369.823832 43.329778 
L 372.340889 43.75669 
L 374.857967 43.693993 
L 379.892102 42.47349 
L 382.40918 42.198144 
L 384.926237 42.409112 
L 387.443315 44.168655 
L 389.960372 46.175154 
L 392.47745 48.426614 
L 402.54572 52.863768 
L 405.062798 53.864093 
L 407.579876 54.64944 
L 410.096933 54.990821 
L 412.614011 53.016544 
L 415.131089 50.7336 
L 417.648146 48.022692 
L 422.682281 45.988947 
L 425.199359 45.621146 
L 427.716437 45.839263 
L 430.233494 46.184812 
L 432.750572 45.989708 
L 435.267629 45.233806 
L 440.301785 42.370907 
L 442.818842 41.07648 
L 445.335899 40.472122 
L 447.852998 40.446667 
L 450.370055 40.731872 
L 455.404211 42.222433 
L 457.921268 43.570571 
L 460.438325 44.066589 
L 462.955424 42.576923 
L 467.989538 38.404271 
L 473.023694 37.594994 
L 475.540751 37.710416 
L 483.091964 38.811665 
L 485.609021 38.949495 
L 488.12612 40.159557 
L 490.643177 41.219038 
L 493.160234 42.454935 
L 495.677333 42.739872 
L 500.711447 43.715997 
L 503.228504 43.824697 
L 505.745603 43.516008 
L 510.779717 42.147928 
L 513.296816 41.517061 
L 518.33093 40.594827 
L 520.848029 40.420427 
L 523.365086 40.713744 
L 525.882143 41.654689 
L 528.399242 40.448527 
L 528.399242 40.448527 
" clip-path="url(#p63c6c04a2e)" style="fill: none; stroke: #d62728; stroke-width: 2.35; stroke-linecap: square"/>
   </g>
   <g id="line2d_24">
    <path d="M 87.912 29.783148 
L 90.42907 26.287478 
L 95.46321 26.293438 
L 97.980279 25.92641 
L 100.497349 25.418041 
L 103.014419 24.77522 
L 108.048558 24.33559 
L 113.082699 25.670029 
L 115.599769 26.349313 
L 118.116839 26.560647 
L 120.633909 27.116956 
L 125.668047 28.846064 
L 135.736324 31.264636 
L 138.253397 31.666754 
L 140.770465 31.834927 
L 145.804605 31.061533 
L 148.321678 30.69722 
L 150.838745 30.74392 
L 153.355818 31.049334 
L 158.389958 32.26587 
L 160.907026 33.768849 
L 163.424093 35.09898 
L 165.941166 35.942367 
L 168.458233 35.615801 
L 170.975306 35.106901 
L 173.492374 34.949998 
L 176.009446 35.388788 
L 178.526514 36.522365 
L 183.560649 39.25939 
L 186.077727 37.995032 
L 188.594794 36.082381 
L 191.111862 33.55489 
L 196.146007 31.701226 
L 198.663075 30.969164 
L 201.180142 30.717605 
L 203.69721 30.816465 
L 208.731355 31.626721 
L 211.248423 31.893502 
L 218.799636 32.193045 
L 223.833771 32.72295 
L 226.350838 32.83153 
L 228.867916 32.757526 
L 231.384984 32.912467 
L 233.902051 33.244078 
L 238.936186 32.743896 
L 241.453264 32.809094 
L 246.487399 34.749698 
L 249.004467 35.636098 
L 251.521545 36.721647 
L 254.038612 37.625615 
L 256.55568 38.301375 
L 259.072747 38.347117 
L 266.62395 34.901306 
L 269.141028 35.09131 
L 271.658106 35.603838 
L 279.209298 38.170875 
L 284.243454 39.228826 
L 291.794667 30.673383 
L 294.311724 31.311956 
L 296.828802 32.243493 
L 299.345858 34.0401 
L 301.862937 36.460265 
L 304.380015 39.269804 
L 306.897071 41.713732 
L 309.41415 43.249753 
L 311.931206 41.631983 
L 314.448284 38.839658 
L 316.965363 35.665585 
L 319.482419 34.594019 
L 321.999497 33.989697 
L 324.516554 33.740853 
L 327.033632 33.857781 
L 332.067767 33.754585 
L 334.584845 33.151252 
L 339.61898 30.948955 
L 342.136058 30.303508 
L 344.653115 30.373943 
L 347.170193 30.800917 
L 352.204328 31.859295 
L 354.721406 32.22591 
L 357.238463 32.395956 
L 359.755541 32.821986 
L 362.272619 34.020747 
L 364.789676 35.704128 
L 367.306754 37.733605 
L 369.823832 39.250687 
L 372.340889 40.404739 
L 374.857967 40.580007 
L 377.375024 40.169922 
L 379.892102 39.608111 
L 382.40918 39.442077 
L 384.926237 39.744777 
L 387.443315 41.48368 
L 389.960372 43.654881 
L 392.47745 45.989506 
L 394.994528 47.144856 
L 405.062798 50.829422 
L 407.579876 51.360714 
L 410.096933 51.629855 
L 412.614011 50.209862 
L 415.131089 49.087038 
L 417.648146 47.676193 
L 420.165224 47.554189 
L 422.682281 47.062326 
L 425.199359 46.986404 
L 430.233494 47.523492 
L 432.750572 47.262331 
L 435.267629 46.476472 
L 437.784707 44.646351 
L 442.818842 40.717749 
L 445.335899 39.931181 
L 447.852998 39.769529 
L 450.370055 40.162901 
L 452.887112 40.688852 
L 455.404211 41.097521 
L 457.921268 41.927794 
L 460.438325 41.898529 
L 462.955424 40.296513 
L 465.472481 38.128423 
L 467.989538 36.585159 
L 470.506595 36.903922 
L 473.023694 37.594344 
L 478.057808 40.24577 
L 480.574907 41.288779 
L 483.091964 41.940081 
L 485.609021 42.337731 
L 488.12612 43.469937 
L 493.160234 45.422224 
L 495.677333 45.601504 
L 500.711447 46.310068 
L 503.228504 46.294035 
L 505.745603 45.830582 
L 510.779717 44.050643 
L 513.296816 43.144079 
L 515.813873 42.380258 
L 518.33093 41.796498 
L 520.848029 41.577671 
L 523.365086 41.760565 
L 525.882143 42.420837 
L 528.399242 40.817817 
L 528.399242 40.817817 
" clip-path="url(#p63c6c04a2e)" style="fill: none; stroke: #2ca02c; stroke-width: 2.35; stroke-linecap: square"/>
   </g>
   <g id="line2d_25">
    <path d="M 87.912 33.238036 
L 90.42907 31.855296 
L 95.46321 32.280089 
L 103.014419 30.528993 
L 108.048558 30.349697 
L 110.565628 31.382069 
L 113.082699 32.274334 
L 115.599769 33.407882 
L 123.150979 33.856159 
L 125.668047 33.895664 
L 128.185117 34.305141 
L 130.702187 34.575552 
L 133.219257 35.139782 
L 135.736324 35.208768 
L 138.253397 35.430966 
L 140.770465 35.123575 
L 143.287537 35.19607 
L 145.804605 34.478125 
L 150.838745 33.986277 
L 153.355818 34.447865 
L 155.872885 35.229709 
L 158.389958 35.833296 
L 160.907026 37.799684 
L 165.941166 40.233675 
L 170.975306 39.423558 
L 173.492374 39.158791 
L 176.009446 39.599363 
L 183.560649 41.20133 
L 186.077727 39.494808 
L 188.594794 37.400269 
L 191.111862 34.447271 
L 193.628929 33.495302 
L 196.146007 32.395467 
L 201.180142 31.119214 
L 206.214277 31.118007 
L 208.731355 31.897048 
L 211.248423 32.33168 
L 213.76549 32.564033 
L 216.282558 32.522857 
L 218.799636 32.652029 
L 231.384984 34.639246 
L 233.902051 35.178081 
L 236.419119 34.162603 
L 241.453264 32.857463 
L 243.970332 33.662271 
L 246.487399 34.259974 
L 249.004467 35.165513 
L 256.55568 36.491129 
L 259.072747 36.562286 
L 261.589815 35.712088 
L 264.106893 34.396051 
L 266.62395 33.412857 
L 269.141028 33.430085 
L 271.658106 34.059644 
L 274.175163 35.308014 
L 279.209298 37.481247 
L 281.726376 38.525036 
L 284.243454 39.098363 
L 289.277589 32.618019 
L 291.794667 30.289716 
L 296.828802 32.902631 
L 299.345858 34.077336 
L 301.862937 35.782336 
L 304.380015 38.381217 
L 306.897071 40.727657 
L 309.41415 42.224104 
L 311.931206 40.190791 
L 314.448284 37.319309 
L 316.965363 34.251397 
L 319.482419 33.508409 
L 321.999497 32.885533 
L 324.516554 32.582338 
L 327.033632 32.571236 
L 332.067767 32.057835 
L 334.584845 31.406221 
L 337.101923 30.443782 
L 339.61898 29.238798 
L 342.136058 28.201562 
L 344.653115 28.303816 
L 347.170193 28.917187 
L 349.687271 30.208756 
L 352.204328 31.335305 
L 354.721406 32.211642 
L 357.238463 31.93685 
L 359.755541 31.893391 
L 362.272619 32.118689 
L 367.306754 34.708139 
L 369.823832 36.040086 
L 372.340889 37.007203 
L 374.857967 36.984944 
L 379.892102 35.998483 
L 384.926237 36.48879 
L 389.960372 40.95394 
L 392.47745 43.390418 
L 397.511585 44.976253 
L 405.062798 49.316632 
L 407.579876 50.105065 
L 410.096933 50.428682 
L 412.614011 48.740055 
L 417.648146 44.881667 
L 422.682281 44.268259 
L 430.233494 45.066532 
L 432.750572 44.896668 
L 435.267629 44.260685 
L 442.818842 37.884301 
L 445.335899 37.411723 
L 450.370055 38.287726 
L 452.887112 39.084087 
L 455.404211 39.531659 
L 457.921268 40.49924 
L 460.438325 40.743604 
L 462.955424 39.480643 
L 465.472481 37.91898 
L 467.989538 36.594217 
L 470.506595 36.469872 
L 473.023694 36.47947 
L 475.540751 36.68225 
L 478.057808 37.405356 
L 480.574907 37.849623 
L 483.091964 38.517109 
L 485.609021 38.632599 
L 488.12612 39.987621 
L 490.643177 40.950357 
L 493.160234 42.198188 
L 498.19439 42.62339 
L 500.711447 43.048127 
L 505.745603 43.019574 
L 510.779717 42.458277 
L 513.296816 41.756112 
L 515.813873 41.196244 
L 518.33093 40.79564 
L 520.848029 41.117641 
L 523.365086 41.261071 
L 525.882143 41.745957 
L 528.399242 40.263861 
L 528.399242 40.263861 
" clip-path="url(#p63c6c04a2e)" style="fill: none; stroke: #1f77b4; stroke-width: 2.35; stroke-linecap: square"/>
   </g>
   <g id="patch_3">
    <path d="M 87.912 63.612 
L 87.912 10.044 
" style="fill: none; stroke: #222222; stroke-width: 0.95; stroke-linejoin: miter; stroke-linecap: square"/>
   </g>
   <g id="patch_4">
    <path d="M 530.136 63.612 
L 530.136 10.044 
" style="fill: none; stroke: #222222; stroke-width: 0.95; stroke-linejoin: miter; stroke-linecap: square"/>
   </g>
   <g id="patch_5">
    <path d="M 87.912 63.612 
L 530.136 63.612 
" style="fill: none; stroke: #222222; stroke-width: 0.95; stroke-linejoin: miter; stroke-linecap: square"/>
   </g>
   <g id="patch_6">
    <path d="M 87.912 10.044 
L 530.136 10.044 
" style="fill: none; stroke: #222222; stroke-width: 0.95; stroke-linejoin: miter; stroke-linecap: square"/>
   </g>
  </g>
 </g>
 <defs>
  <clipPath id="p63c6c04a2e">
   <rect x="87.912" y="10.044" width="442.224" height="53.568"/>
  </clipPath>
 </defs>
</svg>
